<?xml version="1.0" encoding="UTF-8" standalone="no"?>
<svg
   xmlns:dc="http://purl.org/dc/elements/1.1/"
   xmlns:cc="http://creativecommons.org/ns#"
   xmlns:rdf="http://www.w3.org/1999/02/22-rdf-syntax-ns#"
   xmlns:svg="http://www.w3.org/2000/svg"
   xmlns="http://www.w3.org/2000/svg"
   xmlns:sodipodi="http://sodipodi.sourceforge.net/DTD/sodipodi-0.dtd"
   xmlns:inkscape="http://www.inkscape.org/namespaces/inkscape"
   version="1.1"
   id="svg2"
   xml:space="preserve"
   width="3229.4133"
   height="3101.52"
   viewBox="0 0 3229.4133 3101.52"
   sodipodi:docname="drinks-1477040.ai.svg"
   inkscape:version="1.0.1 (3bc2e813f5, 2020-09-07)"><metadata
     id="metadata8"><rdf:RDF><cc:Work
         rdf:about=""><dc:format>image/svg+xml</dc:format><dc:type
           rdf:resource="http://purl.org/dc/dcmitype/StillImage" /><dc:title></dc:title></cc:Work></rdf:RDF></metadata><defs
     id="defs6"><clipPath
       clipPathUnits="userSpaceOnUse"
       id="clipPath18"><path
         d="M 0,2326.139 H 2422.063 V 0 H 0 Z"
         id="path16" /></clipPath><clipPath
       clipPathUnits="userSpaceOnUse"
       id="clipPath30"><path
         d="m 1067.58,633.069 h 780.4 V 409.032 h -780.4 z"
         id="path28" /></clipPath><clipPath
       clipPathUnits="userSpaceOnUse"
       id="clipPath102"><path
         d="m 1467.17,1075.6 h 404.8 V 589.862 h -404.8 z"
         id="path100" /></clipPath></defs><sodipodi:namedview
     pagecolor="#ffffff"
     bordercolor="#666666"
     borderopacity="1"
     objecttolerance="10"
     gridtolerance="10"
     guidetolerance="10"
     inkscape:pageopacity="0"
     inkscape:pageshadow="2"
     inkscape:window-width="640"
     inkscape:window-height="480"
     id="namedview4"
     showgrid="false"
     inkscape:zoom="0.28115247"
     inkscape:cx="1614.7067"
     inkscape:cy="1408.4884"
     inkscape:current-layer="g10" /><g
     id="g10"
     inkscape:groupmode="layer"
     inkscape:label="drinks-1477040"
     transform="matrix(1.3333333,0,0,-1.3333333,0,3101.52)"><g
       id="g12"><g
         id="g14"
         clip-path="url(#clipPath18)"><g
           id="g20"
           transform="translate(1092.3999,703.2666)"><path
             d="m 0,0 c -52.359,17.366 -114.195,17.271 -165.743,-8.99 -51.045,-26.006 -136.93,-95.436 -116.344,-161.44 25.316,-81.173 109.201,-159.283 186.243,-189.756 117.866,-46.62 251.375,-54.571 376.991,-59.915 158.937,-6.762 337.036,-17.797 488.883,35.832 47.94,16.932 50.661,43.893 88.008,71.415 43.151,31.8 63.251,40.27 63.054,96.175 -0.239,67.903 -35.153,123.116 -93.03,156.603 -41.525,24.024 -92.696,52.268 -140.924,57.144 -32.468,3.283 -62.884,-8.629 -95.481,-9.069 -47.894,-0.646 -93.018,-15.142 -142.051,-15.002 -127.748,0.362 -254.062,7.626 -380.958,12.156 C 36.019,-13.683 25.786,-6.121 -3,6.001"
             style="fill:#ffeabf;fill-opacity:1;fill-rule:nonzero;stroke:none"
             id="path22" /></g><g
           id="g24"><g
             id="g26" /><g
             id="g38"><g
               clip-path="url(#clipPath30)"
               opacity="0.529999"
               id="g36"><g
                 transform="translate(1159.1289,622.2588)"
                 id="g34"><path
                   d="m 0,0 c -26.868,4.194 -71.011,-13.134 -84.46,-38.85 -23.041,-44.055 14.768,-86.381 46.795,-111.897 106.528,-84.866 272.122,-61.476 397.568,-53.108 64.192,4.282 113.388,13.009 170.369,41.855 40.248,20.373 155.779,28.458 158.545,96.062 1.588,38.845 -51.45,65.602 -81.614,72.666 C 554.671,19.028 512.64,1.482 465.18,-18.659 372.236,-58.104 262.009,-48.833 161.363,-38.935 104.213,-33.313 59.192,-0.189 2.837,0"
                   style="fill:#d8c5a3;fill-opacity:1;fill-rule:nonzero;stroke:none"
                   id="path32" /></g></g></g></g><g
           id="g40"
           transform="translate(2100.5,1099.3066)"><path
             d="m 0,0 c -40.076,22.649 -126.032,13.978 -156.101,-20.324 -18.081,-20.626 -47.226,-66.674 -29.474,-93.235 39.419,-1.922 79.701,1.208 119.115,-0.906 11.096,-68.839 -60.067,-47.799 -101.557,-56.553 -33.23,-7.011 -46.131,-53.968 -44.706,-89.41 58.117,-24.363 108.885,-22.76 161.863,14.403 23.553,16.522 35.634,41.279 56.657,61.437 22.776,21.839 49.462,28.826 48.197,64.56 -0.535,15.131 -5.515,38.714 -9,54.758 C 37.67,-31.549 8.06,-18.627 -3,12.001"
             style="fill:#ffeabf;fill-opacity:1;fill-rule:nonzero;stroke:none"
             id="path42" /></g><g
           id="g44"
           transform="translate(1906.6963,1207.959)"><path
             d="m 0,0 c 0,-50.811 -201.472,-92 -450,-92 -248.528,0 -450,41.189 -450,92 0,50.811 201.472,92 450,92 C -201.472,92 0,50.811 0,0"
             style="fill:#b37521;fill-opacity:1;fill-rule:nonzero;stroke:none"
             id="path46" /></g><g
           id="g48"
           transform="translate(1782.6963,1197.959)"><path
             d="m 0,0 c 0,-29.823 -137.896,-54 -308,-54 -170.104,0 -308,24.177 -308,54 0,29.823 137.896,54 308,54 C -137.896,54 0,29.823 0,0"
             style="fill:#d89d29;fill-opacity:1;fill-rule:nonzero;stroke:none"
             id="path50" /></g><g
           id="g52"
           transform="translate(1406.6963,539.959)"><path
             d="m 0,0 c -159.741,-4.012 -292.441,255.247 -341.188,375.316 -10.809,26.621 -79.395,216.191 -14.926,224.08 13.01,1.591 46.776,-46.033 59.921,-53.553 38.142,-21.821 78.503,-21.921 121.29,-21.843 103.703,0.188 207.822,2.968 311.096,12 81.052,7.089 161.982,8.772 240.811,28.1 56.652,13.89 98.079,18.662 154.377,7.309 C 536.46,505.616 506.697,434.345 489.189,371.986 468.139,297.012 458.5,180.653 408.179,119.9 354.722,55.362 219.899,21.399 139.921,15.922 88.938,12.43 37.516,23.123 -12,20"
             style="fill:#ffeabf;fill-opacity:1;fill-rule:nonzero;stroke:none"
             id="path54" /></g><g
           id="g56"
           transform="translate(2145.8008,1001.7432)"><path
             d="m 0,0 c -0.125,-1.806 -0.305,-3.605 -0.508,-5.403 -0.171,-1.099 -0.351,-2.196 -0.546,-3.29 -1.739,-9.758 -4.521,-19.317 -8.01,-28.586 -0.435,-1.153 -0.885,-2.297 -1.342,-3.44 -0.911,-2.082 -1.856,-4.149 -2.838,-6.198 -2.311,-4.819 -4.843,-9.53 -7.532,-14.148 -2.756,-4.733 -5.723,-9.341 -8.841,-13.841 -1.492,-2.155 -3.034,-4.274 -4.604,-6.37 -0.823,-1.041 -1.653,-2.076 -2.493,-3.102 -7.298,-8.907 -15.335,-17.2 -23.93,-24.859 -2.105,-1.876 -4.254,-3.701 -6.43,-5.495 -0.987,-0.814 -1.986,-1.612 -2.987,-2.408 -0.129,-0.096 -0.257,-0.196 -0.386,-0.293 -4.791,-3.598 -9.747,-6.976 -14.818,-10.167 -5.151,-3.24 -10.455,-6.235 -15.862,-9.024 -2.627,-1.356 -5.29,-2.643 -7.972,-3.887 -1.262,-0.587 -2.535,-1.151 -3.809,-1.711 -0.174,-0.07 -0.347,-0.143 -0.521,-0.214 -11.832,-4.792 -24.119,-8.43 -36.624,-10.987 -3.632,-0.743 -7.288,-1.361 -10.955,-1.908 -0.677,-0.081 -1.352,-0.164 -2.029,-0.239 -2.146,-0.24 -4.297,-0.435 -6.449,-0.61 -8.567,-0.695 -17.175,-0.825 -25.763,-0.511 -4.303,0.158 -8.6,0.462 -12.888,0.863 -2.051,0.191 -4.099,0.424 -6.145,0.672 -0.978,0.143 -1.955,0.292 -2.931,0.445 -6.772,1.068 -13.489,2.454 -20.146,4.087 9.61,31.145 16.619,63.248 20.838,95.686 5.339,-1.221 11.202,-0.471 16.521,2.158 1.487,0.735 2.98,1.456 4.481,2.165 0.656,0.308 3.928,1.733 4.421,1.971 3.564,1.437 7.175,2.755 10.808,4.007 8.881,3.06 17.983,5.455 27.158,7.452 4.697,1.024 9.432,1.869 14.177,2.636 0.644,0.105 3.977,0.562 4.968,0.707 1.82,0.216 3.641,0.416 5.464,0.604 2.718,0.279 5.441,0.504 8.167,0.697 -0.059,-0.763 -0.124,-1.524 -0.199,-2.285 -0.022,-0.126 -0.044,-0.254 -0.068,-0.399 -0.483,-2.824 -1.187,-5.605 -2.007,-8.348 -0.323,-1.078 -0.7,-2.139 -1.087,-3.196 -1.099,-2.323 -2.415,-4.536 -3.831,-6.677 -0.081,-0.123 -0.179,-0.263 -0.284,-0.411 -0.511,-0.586 -1.03,-1.164 -1.559,-1.734 -0.849,-0.914 -1.754,-1.773 -2.667,-2.623 -0.373,-0.347 -1.005,-0.868 -1.601,-1.348 -1.541,-1.046 -3.141,-2.006 -4.765,-2.917 -1.128,-0.631 -2.288,-1.202 -3.453,-1.761 -5.145,-1.966 -10.533,-3.263 -15.951,-4.205 -0.153,-0.027 -0.289,-0.051 -0.421,-0.075 -1.379,-0.152 -2.761,-0.273 -4.144,-0.382 -3.287,-0.26 -6.586,-0.345 -9.883,-0.367 -7.631,-0.048 -15.259,0.564 -22.828,1.485 -11.934,1.452 -22,-11.106 -22,-22 0,-13.088 10.099,-20.552 22,-22 31.62,-3.847 64.752,-0.646 90.556,19.443 24.716,19.243 30.986,53.049 27.444,82.557 -1.426,11.873 -8.929,22.04 -22,22 -38.822,-0.12 -77.805,-6.865 -113.398,-22.487 0.91,18.308 0.915,36.631 -0.027,54.86 32.665,13.222 66.505,24.216 101.394,29.513 0.44,0.067 0.88,0.127 1.32,0.191 1.535,0.191 3.071,0.372 4.608,0.538 3.73,0.403 7.469,0.706 11.212,0.937 6.657,0.41 13.334,0.492 19.998,0.244 2.965,-0.111 5.925,-0.314 8.879,-0.578 1.192,-0.108 2.381,-0.242 3.569,-0.378 0.119,-0.019 0.239,-0.035 0.359,-0.054 5.377,-0.84 10.697,-2.03 15.92,-3.554 2.346,-0.683 4.662,-1.463 6.955,-2.302 0.594,-0.217 1.181,-0.458 1.771,-0.689 0.175,-0.081 0.353,-0.158 0.529,-0.238 4.182,-1.937 8.2,-4.217 12.026,-6.782 0.645,-0.432 1.274,-0.887 1.905,-1.34 1.439,-1.195 2.842,-2.435 4.196,-3.727 1.466,-1.399 2.862,-2.872 4.212,-4.385 0.498,-0.557 0.975,-1.133 1.454,-1.708 2.245,-3.129 4.236,-6.436 5.992,-9.863 0.412,-0.804 0.799,-1.619 1.182,-2.436 0.546,-1.424 1.064,-2.859 1.537,-4.308 1.319,-4.039 2.305,-8.183 3.05,-12.364 0.069,-0.386 0.122,-0.776 0.185,-1.162 0.231,-2.18 0.384,-4.368 0.484,-6.557 C 0.413,9.059 0.311,4.521 0,0 m -1096.942,185.942 c 6.556,7.896 14.069,14.912 22.084,21.303 1.053,0.791 2.115,1.568 3.183,2.339 2.487,1.796 5.02,3.526 7.577,5.219 5.16,3.416 10.463,6.612 15.845,9.663 11.471,6.503 23.381,12.215 35.491,17.422 0.363,0.15 0.726,0.301 1.089,0.451 1.604,0.661 3.214,1.308 4.824,1.951 3.552,1.417 7.123,2.782 10.706,4.116 7.113,2.65 14.29,5.125 21.505,7.481 31.358,10.236 63.544,17.886 95.976,23.822 8.613,1.576 17.251,3.009 25.907,4.331 4.206,0.644 8.417,1.251 12.632,1.836 0.156,0.021 0.337,0.047 0.529,0.073 0.347,0.046 0.695,0.093 1.043,0.138 2.483,0.325 4.969,0.636 7.455,0.941 17.963,2.206 35.991,3.876 54.049,5.08 36.399,2.426 72.946,2.804 109.383,1.008 17.872,-0.881 35.715,-2.342 53.491,-4.388 3.285,-0.379 6.566,-0.79 9.844,-1.214 1.258,-0.17 3.293,-0.449 4.152,-0.571 2.411,-0.344 4.82,-0.706 7.227,-1.075 8.493,-1.302 16.957,-2.78 25.392,-4.411 31.711,-6.131 63.059,-14.722 92.99,-26.931 0.351,-0.143 0.7,-0.29 1.051,-0.433 1.513,-0.653 3.021,-1.315 4.525,-1.985 3.526,-1.571 7.019,-3.214 10.49,-4.905 6.504,-3.168 12.89,-6.578 19.152,-10.201 6.054,-3.503 11.96,-7.257 17.714,-11.231 2.584,-1.785 5.123,-3.635 7.634,-5.522 0.107,-0.086 0.218,-0.174 0.343,-0.273 1.465,-1.164 2.909,-2.355 4.343,-3.557 5.228,-4.382 10.216,-9.048 14.962,-13.948 2.327,-2.404 4.572,-4.885 6.761,-7.415 1.169,-1.352 2.308,-2.729 3.434,-4.116 0.167,-0.206 0.331,-0.416 0.496,-0.623 4.016,-5.358 7.666,-10.986 10.966,-16.81 1.611,-2.844 3.109,-5.75 4.531,-8.693 0.615,-1.273 1.201,-2.562 1.777,-3.855 0.173,-0.435 0.351,-0.866 0.522,-1.303 2.302,-5.873 6.222,-10.769 11.241,-13.592 -14.929,-2.604 -29.912,-4.907 -44.915,-6.979 -0.609,-0.084 -1.218,-0.167 -1.827,-0.25 -1.924,-0.255 -3.85,-0.506 -5.775,-0.753 -4.512,-0.58 -9.027,-1.136 -13.544,-1.678 -8.735,-1.046 -17.48,-2.013 -26.231,-2.925 -17.525,-1.825 -35.078,-3.379 -52.645,-4.735 -33.843,-2.611 -67.748,-4.417 -101.67,-5.596 -51.293,-1.783 -102.767,-2.468 -154.064,-0.363 -16.237,0.667 -32.394,1.355 -48.643,1.809 -25.055,0.701 -50.088,2.236 -75.059,4.398 4.351,2.884 7.76,7.351 9.67,12.668 0.118,0.327 0.243,0.653 0.364,0.979 0.347,0.723 0.704,1.444 1.072,2.158 1.406,2.728 3.043,5.334 4.8,7.849 0.052,0.074 0.094,0.134 0.14,0.202 0.748,0.901 1.517,1.787 2.3,2.657 2.157,2.397 4.486,4.637 6.894,6.78 0.966,0.861 1.961,1.688 2.963,2.505 0.129,0.095 0.27,0.196 0.426,0.31 2.814,2.048 5.743,3.936 8.723,5.734 5.325,3.213 10.901,5.992 16.586,8.513 0.993,0.409 2.292,0.945 2.966,1.207 1.697,0.66 3.408,1.284 5.121,1.898 3.809,1.363 7.665,2.594 11.542,3.75 7.799,2.326 15.724,4.218 23.699,5.834 3.973,0.807 7.965,1.515 11.966,2.167 2.006,0.328 4.017,0.628 6.03,0.919 0.824,0.105 1.649,0.211 2.474,0.312 8.779,1.064 17.598,1.779 26.428,2.25 18.069,0.964 36.202,0.708 54.25,-0.543 8.144,-0.564 16.269,-1.385 24.369,-2.402 1.286,-0.176 3.24,-0.444 4.068,-0.567 2.099,-0.312 4.195,-0.648 6.289,-0.991 4.486,-0.737 8.957,-1.565 13.415,-2.454 16.218,-3.235 32.246,-7.553 47.779,-13.245 1.745,-0.638 3.48,-1.307 5.21,-1.985 0.547,-0.214 1.524,-0.614 2.415,-0.981 2.924,-1.276 5.824,-2.609 8.688,-4.014 6.202,-3.044 12.218,-6.466 17.979,-10.28 1.304,-0.864 2.586,-1.762 3.858,-2.672 0.236,-0.169 0.468,-0.344 0.702,-0.516 2.172,-1.753 4.278,-3.588 6.3,-5.512 2.025,-1.926 3.936,-3.969 5.759,-6.087 0.145,-0.169 0.283,-0.344 0.426,-0.515 0.586,-0.827 1.16,-1.665 1.713,-2.516 6.523,-10.034 19.383,-14.171 30.1,-7.892 9.972,5.841 14.436,20.035 7.893,30.099 -17.222,26.49 -45.506,41.971 -74.136,53.315 -33.093,13.112 -68.861,19.304 -104.168,22.521 -37.203,3.389 -74.708,1.989 -111.555,-4.148 -30.942,-5.153 -63.341,-14.731 -89.097,-33.206 -17.852,-12.807 -31.689,-28.882 -39.179,-49.736 -2.802,-7.8 0.4,-16.303 6.238,-21.805 -9.567,1.017 -19.124,2.129 -28.666,3.356 -0.716,0.092 -2.195,0.288 -3.37,0.444 -1.264,0.172 -2.529,0.344 -3.794,0.521 -4.378,0.611 -8.752,1.253 -13.123,1.914 -8.49,1.285 -16.963,2.678 -25.419,4.164 -33.531,5.895 -66.851,13.434 -99.306,23.778 -7.712,2.459 -15.362,5.109 -22.945,7.94 -3.546,1.323 -7.07,2.703 -10.58,4.121 -0.53,0.215 -1.487,0.611 -2.375,0.981 -1.437,0.619 -2.875,1.239 -4.305,1.874 -0.385,0.17 -0.766,0.349 -1.151,0.522 7.999,-3.088 17.951,-2.041 23.611,4.775 M 37.234,50.094 c -8.141,21.06 -21.74,38.26 -40.814,50.516 -20.755,13.336 -46.113,18.395 -70.417,19.402 -24.13,0.999 -48.588,-2.622 -72.08,-7.866 -29.803,-6.652 -58.747,-16.933 -86.876,-28.716 -5.382,-2.254 -9.989,-5.726 -12.901,-10.156 -6.8,-3.832 -11.815,-11.001 -11.25,-19.058 1.482,-21.14 1.626,-42.341 0.548,-63.504 -0.546,-10.727 -1.452,-21.434 -2.629,-32.108 -0.283,-2.575 -0.594,-5.145 -0.914,-7.714 -0.066,-0.533 -0.137,-1.064 -0.206,-1.595 -0.076,-0.566 -0.158,-1.172 -0.212,-1.555 -0.786,-5.577 -1.674,-11.139 -2.628,-16.69 -3.679,-21.451 -8.664,-42.674 -14.768,-63.563 -3.059,-10.466 -6.453,-20.833 -10.11,-31.105 -1.755,-4.927 -3.595,-9.823 -5.487,-14.7 -0.946,-2.437 -1.916,-4.863 -2.896,-7.286 -0.489,-1.21 -0.988,-2.417 -1.486,-3.625 -0.124,-0.299 -0.249,-0.597 -0.373,-0.896 -8.488,-19.882 -18.22,-39.229 -29.075,-57.922 -5.397,-9.295 -11.125,-18.396 -17.115,-27.32 -2.862,-4.264 -5.809,-8.47 -8.807,-12.638 -1.495,-2.08 -3.016,-4.141 -4.546,-6.195 -0.764,-1.027 -1.536,-2.046 -2.308,-3.066 -0.198,-0.26 -0.397,-0.519 -0.595,-0.779 -12.966,-16.616 -27.152,-32.276 -42.408,-46.816 -7.593,-7.238 -15.499,-14.143 -23.643,-20.752 -1.288,-1.045 -2.597,-2.067 -3.901,-3.092 -0.871,-0.654 -3.727,-2.845 -4.552,-3.457 -4.365,-3.241 -8.816,-6.364 -13.319,-9.409 -17.372,-11.748 -35.815,-21.89 -54.999,-30.353 -0.555,-0.245 -1.113,-0.481 -1.669,-0.722 -0.463,-0.195 -0.936,-0.393 -1.245,-0.52 -2.352,-0.965 -4.719,-1.89 -7.092,-2.801 -5.167,-1.985 -10.393,-3.813 -15.65,-5.541 -10.242,-3.365 -20.66,-6.177 -31.175,-8.544 -5.127,-1.154 -10.286,-2.159 -15.461,-3.074 -2.611,-0.461 -5.229,-0.877 -7.849,-1.278 -0.469,-0.072 -0.939,-0.136 -1.408,-0.204 -0.997,-0.135 -2.655,-0.36 -3.333,-0.442 -12.321,-1.497 -24.748,-2.304 -37.135,-3.032 -23.743,-1.395 -47.553,-1.721 -71.323,-0.848 -11.074,0.408 -22.136,1.125 -33.173,2.116 -5.124,0.459 -10.241,1.001 -15.351,1.596 -1.622,0.189 -3.242,0.4 -4.862,0.606 -1.183,0.17 -5.526,0.76 -6.739,0.941 -19.682,2.931 -39.19,7.029 -58.37,12.333 -9.073,2.509 -18.057,5.338 -26.947,8.432 -4.166,1.45 -8.303,2.982 -12.421,4.565 -2.036,0.783 -4.064,1.591 -6.087,2.407 -0.942,0.379 -1.881,0.767 -2.82,1.154 -16.093,6.904 -31.69,14.951 -46.675,24.01 -7.297,4.413 -14.42,9.107 -21.39,14.017 -3.313,2.335 -6.579,4.738 -9.812,7.182 -0.095,0.071 -0.203,0.153 -0.314,0.238 -0.275,0.215 -0.551,0.429 -0.825,0.645 -1.847,1.453 -3.674,2.93 -5.493,4.418 -12.93,10.58 -25.083,22.092 -36.489,34.294 -5.707,6.106 -11.192,12.416 -16.503,18.869 -1.278,1.552 -2.539,3.12 -3.794,4.691 -0.44,0.55 -1.384,1.758 -2.118,2.698 -2.249,2.95 -4.463,5.928 -6.638,8.934 -9.998,13.817 -19.132,28.251 -27.559,43.074 -8.653,15.22 -16.47,30.908 -23.635,46.879 -0.875,1.949 -1.734,3.905 -2.588,5.863 -0.319,0.731 -1.08,2.514 -1.593,3.711 -1.514,3.631 -2.998,7.275 -4.45,10.931 -3.36,8.468 -6.528,17.011 -9.557,25.601 -12.623,35.806 -22.444,72.564 -30.486,109.652 -6.793,31.322 -12.223,62.931 -16.766,94.653 -0.515,3.592 -1.009,7.186 -1.499,10.781 -0.147,1.089 -0.312,2.323 -0.387,2.897 -0.269,2.045 -0.532,4.091 -0.793,6.138 -1.052,8.229 -2.038,16.466 -2.982,24.708 -1.596,13.952 -3.027,27.919 -4.346,41.899 25.201,-11.333 51.652,-20.004 78.287,-27.123 65.672,-17.552 133.868,-26.411 201.566,-31.374 24.683,-1.809 49.431,-3.006 74.181,-3.254 15.477,-0.155 30.96,-1.561 46.447,-1.994 55.374,-1.55 110.865,-0.505 166.194,1.991 71.04,3.205 142.077,9.227 212.345,20.329 59.215,9.357 120.708,21.819 174.295,49.815 20.81,10.87 40.134,25.285 53.452,44.852 12.772,18.765 15.811,42.176 10.47,63.979 -6.761,27.598 -26.064,51.004 -47.722,68.545 -28.734,23.271 -61.625,39.536 -95.643,53.578 -74.838,30.892 -155.207,48.615 -234.711,62.583 -62.794,11.032 -126.314,19.721 -189.93,24.286 -11.977,0.859 -22,-10.657 -22,-22 0,-12.642 10.043,-21.143 22,-22 26.704,-1.915 53.345,-4.756 79.917,-8.014 4,-0.49 7.998,-0.996 11.996,-1.51 2.05,-0.263 4.1,-0.531 6.15,-0.8 0.83,-0.11 1.66,-0.22 2.489,-0.33 0.005,-0.001 0.008,-0.001 0.012,-0.002 9.038,-1.226 18.066,-2.518 27.086,-3.861 19.277,-2.871 38.512,-6.026 57.696,-9.459 40.671,-7.278 81.129,-15.884 121.085,-26.424 19.692,-5.194 39.247,-10.914 58.593,-17.279 9.314,-3.064 18.569,-6.309 27.76,-9.726 4.297,-1.597 8.574,-3.248 12.837,-4.934 2.1,-0.83 4.194,-1.679 6.285,-2.532 1.023,-0.418 2.043,-0.842 3.063,-1.266 16.077,-6.86 31.833,-14.521 46.949,-23.308 6.898,-4.008 13.631,-8.301 20.165,-12.878 1.501,-1.05 2.983,-2.128 4.458,-3.213 0.426,-0.314 0.848,-0.633 1.271,-0.951 2.722,-2.152 5.386,-4.376 7.989,-6.67 5.143,-4.534 9.988,-9.405 14.469,-14.593 0.809,-0.937 1.587,-1.899 2.365,-2.862 0.151,-0.206 0.304,-0.41 0.455,-0.617 1.913,-2.633 3.682,-5.369 5.339,-8.169 1.489,-2.514 2.833,-5.111 4.075,-7.755 0.022,-0.046 0.039,-0.083 0.06,-0.126 0.431,-1.115 0.841,-2.238 1.23,-3.367 0.745,-2.162 1.373,-4.364 1.916,-6.585 0.262,-1.068 0.486,-2.146 0.696,-3.225 0.021,-0.112 0.038,-0.223 0.059,-0.334 0.285,-3.207 0.29,-6.433 0.033,-9.642 -0.106,-0.54 -0.219,-1.079 -0.338,-1.616 -0.461,-2.079 -1.074,-4.121 -1.775,-6.13 -0.071,-0.205 -0.158,-0.405 -0.233,-0.609 -0.012,-0.024 -0.023,-0.048 -0.034,-0.072 -0.948,-1.972 -2.027,-3.881 -3.175,-5.745 -0.802,-1.301 -1.671,-2.56 -2.564,-3.802 -0.755,-0.909 -1.533,-1.799 -2.325,-2.675 -3.194,-3.535 -6.703,-6.778 -10.363,-9.823 -0.397,-0.331 -0.805,-0.647 -1.207,-0.969 -0.214,-0.162 -0.416,-0.313 -0.589,-0.44 -2.222,-1.627 -4.501,-3.174 -6.809,-4.675 -9.812,-6.388 -20.307,-11.696 -31.006,-16.42 -0.371,-0.164 -0.902,-0.394 -1.449,-0.628 -0.836,-0.345 -1.67,-0.693 -2.507,-1.032 -3.195,-1.29 -6.415,-2.521 -9.645,-3.719 -6.5,-2.412 -13.071,-4.63 -19.679,-6.727 -14.262,-4.525 -28.734,-8.378 -43.29,-11.835 -8.856,-2.102 -17.751,-4.035 -26.672,-5.845 4.982,5.503 7.595,13.269 4.828,20.332 -21.846,55.75 -69.035,94.206 -122.527,118.379 -63.839,28.85 -133.836,41.26 -203.341,46.271 -73.862,5.324 -148.334,1.097 -221.417,-10.513 -63.56,-10.096 -127.391,-26.46 -185.206,-55.309 -26.459,-13.204 -53.064,-30.169 -72.126,-53.126 -7.653,-9.217 -9.061,-22.052 0,-31.114 1.436,-1.435 3.127,-2.651 4.977,-3.629 -11.978,5.494 -23.638,11.707 -34.702,18.87 -2.736,1.771 -5.42,3.62 -8.068,5.519 -0.941,0.676 -1.866,1.373 -2.793,2.069 -0.511,0.409 -1.024,0.816 -1.531,1.231 -4.883,3.984 -9.508,8.282 -13.835,12.864 -1.969,2.085 -3.848,4.254 -5.665,6.473 -0.874,1.188 -1.72,2.397 -2.546,3.619 -2.559,3.79 -4.818,7.776 -6.798,11.897 -0.444,1.197 -1.941,4.915 -2.397,6.344 -0.907,2.845 -1.63,5.746 -2.232,8.671 -0.178,0.862 -0.332,1.73 -0.478,2.598 -0.018,0.185 -0.041,0.371 -0.059,0.557 -0.301,3.104 -0.398,6.225 -0.374,9.342 0.024,2.957 0.224,5.911 0.52,8.853 0.27,1.681 0.589,3.355 0.934,5.023 1.436,6.936 3.587,13.709 6.135,20.311 0.179,0.463 0.368,0.922 0.553,1.383 0.662,1.496 1.348,2.98 2.049,4.458 1.85,3.896 3.873,7.709 5.982,11.47 1.997,3.561 4.093,7.063 6.397,10.434 0.455,0.667 0.925,1.323 1.397,1.978 0.57,0.701 2.66,3.38 3.426,4.28 5.395,6.332 11.432,12.1 17.792,17.453 0.716,0.601 1.44,1.192 2.168,1.78 0.578,0.424 3.147,2.389 4.043,3.036 3.753,2.711 7.621,5.26 11.545,7.716 7.874,4.93 16.079,9.321 24.437,13.369 3.972,1.924 7.998,3.732 12.049,5.483 0.998,0.411 2,0.816 3.002,1.219 2.59,1.043 5.199,2.043 7.813,3.027 19.516,7.347 39.632,13.054 59.93,17.788 10.579,2.467 21.232,4.612 31.922,6.542 5.188,0.936 10.388,1.801 15.595,2.626 2.611,0.414 5.226,0.805 7.841,1.192 1.309,0.193 2.619,0.38 3.929,0.566 0.523,0.075 1.621,0.226 2.548,0.354 21.109,2.783 42.326,4.718 63.575,6.004 29.736,1.8 59.565,2.227 89.34,1.301 12.777,-0.398 25.545,-1.085 38.288,-2.089 5.708,-0.449 11.411,-0.981 17.105,-1.585 2.659,-0.282 5.315,-0.589 7.969,-0.911 0.993,-0.12 1.985,-0.25 2.978,-0.376 0.11,-0.018 0.217,-0.032 0.341,-0.05 0.103,-0.015 0.206,-0.021 0.31,-0.033 0.206,-0.028 0.412,-0.052 0.618,-0.079 0.797,-0.104 0.57,-0.07 -0.015,0.011 11.546,-1.334 22.758,3.137 26.15,15.466 2.869,10.432 -3.471,25.375 -15.366,27.063 -79.356,11.258 -161.04,8.847 -240.293,-1.92 -42.264,-5.743 -84.421,-14.511 -124.463,-29.442 -36.555,-13.63 -72.987,-32.314 -99.671,-61.464 -23.562,-25.74 -39.233,-60.05 -42.493,-94.816 -2.732,-29.135 7.93,-56.543 25.538,-79.227 11.416,-14.707 26.11,-26.833 41.937,-37.009 -3.056,-3.725 -4.857,-8.363 -4.403,-13.336 7.475,-81.995 18.553,-164.137 39.329,-243.921 18.407,-70.688 45.017,-140.757 85.957,-201.63 39.611,-58.898 92.691,-107.999 156.592,-139.445 75.996,-37.399 161.411,-49.906 245.463,-48.525 47.731,0.785 95.911,4.792 141.488,19.769 43.061,14.15 82.217,36.433 117.684,64.455 67.243,53.126 115.417,127.585 146.601,206.769 56.997,-14.566 116.672,-9.972 169.777,16.039 44.024,21.562 81.793,58.543 104.403,102.029 19.211,36.947 30.636,84.004 15.044,124.338"
             style="fill:#231f20;fill-opacity:1;fill-rule:nonzero;stroke:none"
             id="path58" /></g><g
           id="g60"
           transform="translate(1282.9692,862.8691)"><path
             d="m 0,0 c -2.539,4.333 -8.497,6.066 -12.855,3.37 -1.273,-0.786 -2.582,-1.503 -3.925,-2.162 -0.252,-0.124 -0.507,-0.24 -0.762,-0.358 -0.411,-0.162 -1.593,-0.648 -2.049,-0.814 -3.254,-1.183 -6.623,-2.038 -10.021,-2.685 -0.843,-0.162 -1.69,-0.3 -2.537,-0.431 -0.177,-0.022 -0.353,-0.044 -0.53,-0.064 -1.896,-0.218 -3.801,-0.352 -5.708,-0.436 -3.699,-0.163 -7.41,-0.05 -11.097,0.286 -0.407,0.037 -0.812,0.079 -1.218,0.124 -0.464,0.066 -1.545,0.212 -1.972,0.283 -1.859,0.308 -3.702,0.702 -5.532,1.156 -1.653,0.409 -3.286,0.897 -4.9,1.437 -0.793,0.265 -1.578,0.555 -2.358,0.854 -0.108,0.041 -0.214,0.086 -0.322,0.128 -0.172,0.074 -0.34,0.147 -0.464,0.203 -1.46,0.663 -2.88,1.413 -4.266,2.22 -0.677,0.395 -1.337,0.818 -1.991,1.249 -0.334,0.221 -1.081,0.777 -1.521,1.1 -0.842,0.716 -1.646,1.473 -2.418,2.263 -0.491,0.503 -0.955,1.031 -1.409,1.567 -0.124,0.178 -0.248,0.356 -0.37,0.535 -0.739,1.084 -1.376,2.234 -1.944,3.416 -0.074,0.2 -0.149,0.401 -0.22,0.602 -0.291,0.836 -0.521,1.691 -0.727,2.551 -0.07,0.292 -0.127,0.586 -0.184,0.88 -0.053,0.472 -0.152,1.309 -0.173,1.71 -0.073,1.371 -0.031,2.745 0.082,4.114 0.07,0.434 0.244,1.661 0.336,2.121 0.159,0.786 0.464,1.566 0.733,2.32 0.037,0.106 0.078,0.209 0.117,0.314 0.024,0.053 0.047,0.104 0.069,0.151 0.428,0.922 0.913,1.814 1.416,2.696 0.683,1.199 1.443,2.354 2.244,3.479 0.223,0.275 1.1,1.412 1.403,1.77 0.739,0.87 1.513,1.709 2.301,2.534 1.39,1.459 2.867,2.835 4.383,4.162 0.745,0.652 1.512,1.281 2.283,1.901 0.503,0.378 1.013,0.749 1.524,1.115 3.573,2.559 7.383,4.779 11.334,6.697 0.551,0.267 1.107,0.523 1.665,0.773 -0.054,-0.04 1.821,0.74 2.328,0.93 2.067,0.771 4.179,1.417 6.316,1.967 0.961,0.248 1.933,0.459 2.907,0.656 0.42,0.084 1.586,0.262 2.111,0.349 1.617,0.161 3.243,0.228 4.868,0.208 0.761,-0.009 1.522,-0.054 2.282,-0.111 0.169,-0.013 0.338,-0.029 0.507,-0.046 0.037,-0.006 0.074,-0.012 0.106,-0.018 1.664,-0.283 3.293,-0.742 4.879,-1.315 0.233,-0.113 0.465,-0.229 0.695,-0.346 0.771,-0.393 1.509,-0.846 2.233,-1.319 0.131,-0.085 0.259,-0.174 0.386,-0.264 0.054,-0.044 0.106,-0.086 0.151,-0.124 0.683,-0.583 1.316,-1.221 1.932,-1.875 3.507,-3.73 9.751,-3.537 13.287,0 3.704,3.703 3.506,9.561 0,13.288 -13.929,14.817 -35.804,12.202 -52.796,4.98 -16.58,-7.048 -32.283,-20.07 -38.908,-37.169 -2.873,-7.413 -2.686,-16.963 -0.088,-24.429 2.806,-8.058 8.07,-14.194 14.816,-19.248 5.929,-4.442 13.238,-7.281 20.37,-9.098 7.753,-1.974 15.936,-2.774 23.928,-2.551 12.31,0.343 25.315,3.001 35.902,9.549 C 0.977,-10.167 2.637,-4.502 0,0"
             style="fill:#480000;fill-opacity:1;fill-rule:nonzero;stroke:none"
             id="path62" /></g><g
           id="g64"
           transform="translate(1585.875,858.7139)"><path
             d="m 0,0 c 0.073,0.239 0.204,0.598 0.328,0.927 0.306,0.605 0.642,1.196 1.007,1.766 0.03,0.045 0.061,0.094 0.095,0.144 0.191,0.211 0.388,0.417 0.588,0.62 0.193,0.197 0.395,0.385 0.601,0.569 0.384,0.256 0.78,0.494 1.187,0.713 0.54,0.209 1.395,0.54 1.865,0.666 0.454,0.122 0.913,0.22 1.374,0.312 0.018,0.004 0.037,0.006 0.055,0.01 1.685,0.14 3.384,0.095 5.067,-0.063 C 12.533,5.601 12.898,5.533 13.262,5.46 14.337,5.244 15.4,4.971 16.453,4.664 17.422,4.382 18.378,4.054 19.324,3.7 19.38,3.68 19.441,3.655 19.506,3.631 19.765,3.513 20.025,3.401 20.281,3.279 22.068,2.43 23.785,1.435 25.411,0.31 25.502,0.246 25.59,0.178 25.68,0.113 c 0.034,-0.028 0.067,-0.055 0.098,-0.082 0.403,-0.342 0.789,-0.703 1.168,-1.073 -2.182,-0.759 -4.463,-1.244 -6.733,-1.627 -0.244,-0.042 -0.49,-0.078 -0.734,-0.115 -0.719,-0.085 -1.438,-0.158 -2.159,-0.226 -1.941,-0.179 -3.889,-0.282 -5.837,-0.352 -4.088,-0.149 -8.182,-0.084 -12.27,0.086 0.09,0.508 0.193,1.015 0.308,1.519 C -0.343,-1.165 -0.177,-0.581 0,0 m -63.628,-6.14 c 0.87,1.452 1.794,2.884 2.776,4.268 0.128,0.129 1.093,1.343 1.432,1.716 0.679,0.748 1.406,1.449 2.153,2.127 0.196,0.177 0.401,0.345 0.603,0.515 0.524,0.368 1.061,0.717 1.61,1.048 0.54,0.325 1.1,0.615 1.667,0.893 0.184,0.065 0.37,0.129 0.556,0.19 0.619,0.205 1.252,0.365 1.887,0.508 0.072,0.017 0.146,0.027 0.218,0.042 0.41,0.025 0.82,0.04 1.231,0.042 0.241,0 0.59,-0.022 0.922,-0.049 0.451,-0.102 0.899,-0.223 1.341,-0.366 0.023,-0.013 0.046,-0.023 0.069,-0.035 0.22,-0.116 0.431,-0.245 0.641,-0.377 0.078,-0.069 0.151,-0.136 0.216,-0.199 0.021,-0.021 0.042,-0.042 0.064,-0.065 0.019,-0.032 0.037,-0.066 0.056,-0.099 l -10e-4,-0.141 c -0.038,-0.147 -0.08,-0.293 -0.124,-0.439 -0.114,-0.251 -0.24,-0.51 -0.346,-0.699 -0.129,-0.225 -0.269,-0.443 -0.412,-0.661 -0.269,-0.34 -0.631,-0.792 -0.854,-1.03 -0.644,-0.691 -1.343,-1.327 -2.055,-1.945 -0.084,-0.073 -0.199,-0.167 -0.324,-0.267 -0.482,-0.347 -0.971,-0.684 -1.467,-1.012 -1.329,-0.882 -2.721,-1.665 -4.13,-2.411 -0.689,-0.365 -1.392,-0.705 -2.094,-1.043 -0.344,-0.166 -1.753,-0.776 -2.102,-0.936 -1.572,-0.627 -3.166,-1.197 -4.772,-1.734 0.401,0.727 0.813,1.448 1.239,2.159 M -256.2,12.728 c -1.19,-0.401 -2.409,-0.713 -3.636,-0.976 -0.624,-0.133 -1.253,-0.248 -1.883,-0.353 -0.024,-0.003 -0.049,-0.006 -0.073,-0.01 -1.315,-0.145 -2.634,-0.235 -3.957,-0.283 -2.775,-0.099 -5.559,0.017 -8.32,0.323 -0.006,0 -0.013,0.002 -0.019,0.003 -0.711,0.114 -1.418,0.247 -2.123,0.394 -1.295,0.271 -2.578,0.606 -3.838,1.008 -0.434,0.139 -0.864,0.291 -1.291,0.45 -0.488,0.234 -0.967,0.488 -1.432,0.764 0.088,0.142 0.174,0.286 0.267,0.427 0.056,0.085 0.118,0.166 0.175,0.25 1.089,1.277 2.3,2.448 3.557,3.556 0.43,0.379 0.868,0.747 1.31,1.111 0.092,0.075 0.184,0.148 0.276,0.222 0.985,0.737 1.987,1.449 3.004,2.14 1.39,0.943 2.808,1.844 4.244,2.716 0.782,-1.67 2.046,-3.13 3.72,-4.128 2.098,-1.252 4.156,-2.569 6.142,-3.991 0.234,-0.168 0.463,-0.341 0.693,-0.512 0.723,-0.586 1.426,-1.197 2.107,-1.831 0.424,-0.395 0.831,-0.806 1.231,-1.226 -0.052,-0.017 -0.103,-0.037 -0.154,-0.054 M 88.311,-16.346 c -2.649,4.523 -8.352,5.812 -12.856,3.371 -0.818,-0.443 -1.65,-0.859 -2.491,-1.257 -0.471,-0.224 -0.947,-0.439 -1.424,-0.652 -0.045,-0.019 -0.091,-0.039 -0.135,-0.058 -2.393,-0.977 -4.826,-1.85 -7.278,-2.663 -6.138,-2.039 -12.422,-3.646 -18.768,-4.889 -1.632,-0.319 -3.271,-0.605 -4.913,-0.868 -0.673,-0.109 -1.347,-0.206 -2.022,-0.303 -0.427,-0.053 -0.854,-0.105 -1.282,-0.154 -3.423,-0.395 -6.865,-0.629 -10.31,-0.693 -3.267,-0.061 -6.536,0.074 -9.782,0.432 -0.073,0.012 -0.145,0.021 -0.218,0.032 -0.732,0.115 -1.461,0.253 -2.188,0.399 -1.524,0.306 -3.029,0.701 -4.513,1.166 -0.314,0.097 -0.626,0.203 -0.938,0.311 5.224,0.11 10.433,0.507 15.634,1.318 6.14,0.959 11.858,3.041 16.724,6.95 4.732,3.8 5.983,9.773 5.074,15.463 C 45.948,5.808 42.766,9.93 39.698,12.761 25.1,26.229 -4.89,31.4 -15.803,10.606 c -5.434,-10.354 -5.465,-23.883 -0.146,-34.418 -1.988,0.241 -4.078,-0.122 -5.973,-1.122 -0.65,-0.342 -1.309,-0.67 -1.974,-0.985 -0.173,-0.083 -0.349,-0.159 -0.523,-0.237 -1.465,-0.579 -2.96,-1.08 -4.467,-1.532 -1.552,-0.465 -3.125,-0.851 -4.707,-1.194 -0.804,-0.174 -1.613,-0.325 -2.423,-0.47 -0.419,-0.074 -1.45,-0.22 -2.025,-0.302 -3.022,-0.329 -6.066,-0.442 -9.104,-0.369 -1.624,0.04 -3.246,0.155 -4.861,0.323 -0.096,0.01 -0.19,0.022 -0.285,0.033 -0.888,0.138 -1.773,0.308 -2.653,0.493 -1.474,0.309 -2.929,0.706 -4.362,1.166 -0.556,0.178 -1.106,0.378 -1.652,0.585 -0.242,0.114 -0.487,0.224 -0.728,0.342 -0.056,0.028 -0.112,0.059 -0.168,0.087 0.35,0.064 0.7,0.149 1.046,0.263 9.555,3.12 19.792,7.415 26.683,15.047 5.115,5.664 8.279,13.425 5.964,21.045 -2.092,6.887 -7.873,11.784 -14.668,13.737 -7.181,2.064 -14.993,0.441 -21.39,-3.152 -6.067,-3.406 -10.834,-8.849 -14.562,-14.776 -1.104,2.535 -3.168,4.62 -5.944,5.012 -11.459,1.617 -22.945,2.537 -34.454,3.063 0.628,1.74 1.272,3.475 1.942,5.198 0.465,1.198 0.947,2.388 1.436,3.575 0.021,0.051 0.041,0.097 0.059,0.141 0.33,0.775 0.67,1.546 1.012,2.316 2.134,4.808 4.501,9.51 7.089,14.09 2.515,4.451 5.293,8.75 8.316,12.872 0.215,0.292 0.436,0.583 0.655,0.873 0.161,0.21 0.335,0.435 0.431,0.556 0.578,0.729 1.173,1.444 1.772,2.155 0.718,-1.253 1.378,-2.539 1.988,-3.847 0.139,-0.329 0.386,-0.904 0.461,-1.103 0.247,-0.649 0.465,-1.308 0.683,-1.968 0.435,-1.317 0.782,-2.662 1.096,-4.012 0.157,-0.674 0.283,-1.355 0.409,-2.035 0.029,-0.158 0.078,-0.503 0.121,-0.818 0.145,-1.409 0.204,-2.824 0.215,-4.24 0.042,-5.123 4.243,-9.397 9.396,-9.397 5.091,0 9.439,4.274 9.396,9.397 -0.12,14.614 -6.187,28.712 -16.419,39.102 -3.663,3.72 -9.594,3.5 -13.287,0 -11.213,-10.624 -19.684,-23.654 -26.386,-37.522 -7.676,13.992 -17.047,27.395 -27.938,39.064 -12.021,12.879 -28.415,25.156 -47.02,21.59 -14.285,-2.737 -22.071,-15.737 -26.362,-28.445 -1.38,-4.086 -2.467,-8.284 -3.34,-12.543 -2.676,1.831 -5.311,3.719 -7.905,5.658 -4.112,3.074 -10.486,0.673 -12.855,-3.371 -2.81,-4.796 -0.724,-9.796 3.371,-12.855 4.709,-3.521 9.602,-6.918 14.652,-10.118 -0.307,-4.143 -0.506,-8.277 -0.643,-12.362 -0.092,-2.738 -0.143,-5.478 -0.157,-8.219 -0.288,0.854 -0.619,1.697 -0.977,2.524 -1.341,3.091 -3.865,5.814 -6.325,8.075 -3.758,3.455 -8.064,6.381 -12.441,8.992 -1.329,0.792 -2.793,1.197 -4.26,1.257 -0.207,0.763 -0.502,1.507 -0.911,2.205 -2.626,4.484 -8.381,5.866 -12.855,3.371 -8.884,-4.949 -18.052,-10.763 -23.881,-19.306 -2.117,-3.103 -3.387,-6.924 -3.433,-10.687 -0.055,-4.371 1.807,-7.987 4.471,-11.284 3.759,-4.651 10.431,-7.106 16.077,-8.35 6.296,-1.387 12.932,-1.857 19.354,-1.219 6.156,0.611 13.057,1.757 18.228,5.435 3.261,2.32 5.645,4.982 7.08,8.685 0.271,-9.196 0.959,-18.382 2.045,-27.503 1.442,-12.114 3.142,-24.451 7.939,-35.753 2.003,-4.719 8.864,-5.708 12.855,-3.371 2.1,1.23 3.672,3.266 4.318,5.615 0.737,2.679 0.091,4.797 -0.947,7.24 1.672,-3.938 0.248,-0.506 -0.105,0.52 -0.374,1.085 -0.705,2.185 -1.02,3.289 -0.718,2.52 -1.305,5.079 -1.838,7.644 -0.63,3.029 -1.157,6.079 -1.631,9.134 -0.123,0.793 -0.239,1.587 -0.354,2.381 -0.035,0.252 -0.07,0.502 -0.106,0.753 -0.221,1.707 -0.426,3.416 -0.615,5.127 -1.679,15.104 -2.252,30.376 -1.637,45.564 13.043,-6.382 26.856,-11.09 41.112,-13.045 2.636,-0.362 4.843,-0.458 7.241,0.947 2.1,1.23 3.672,3.266 4.318,5.615 1.221,4.438 -1.479,10.861 -6.563,11.558 -6.438,0.883 -12.756,2.361 -18.958,4.294 -3.153,0.983 -6.259,2.112 -9.333,3.318 -0.479,0.187 -0.953,0.384 -1.429,0.579 -0.343,0.143 -1.114,0.463 -1.283,0.536 -1.647,0.714 -3.276,1.468 -4.897,2.237 -2.852,1.35 -5.665,2.786 -8.438,4.292 0.119,0.775 0.24,1.549 0.37,2.323 1.104,6.551 2.651,13.075 5.081,19.269 0.014,0.035 0.029,0.071 0.043,0.105 0.264,0.595 0.544,1.182 0.831,1.766 0.616,1.257 1.302,2.478 2.042,3.665 0.323,0.519 0.666,1.024 1.015,1.524 0.71,0.848 1.479,1.643 2.298,2.387 0.066,0.059 0.135,0.115 0.202,0.173 0.215,0.144 0.433,0.284 0.653,0.419 0.439,0.273 0.895,0.515 1.357,0.746 0.134,0.067 0.27,0.129 0.405,0.194 0.127,0.053 0.247,0.099 0.345,0.135 0.781,0.278 1.584,0.488 2.391,0.674 0.18,0.042 0.361,0.078 0.543,0.113 0.729,0.058 1.461,0.069 2.192,0.06 0.423,-0.006 1.363,-0.108 1.932,-0.169 0.969,-0.197 1.927,-0.452 2.874,-0.739 0.669,-0.203 1.327,-0.44 1.981,-0.687 0.211,-0.097 0.424,-0.19 0.634,-0.291 3.076,-1.452 5.949,-3.317 8.679,-5.335 0.179,-0.143 0.359,-0.284 0.536,-0.427 0.654,-0.528 1.294,-1.072 1.93,-1.618 1.431,-1.231 2.81,-2.519 4.165,-3.831 2.777,-2.694 5.391,-5.553 7.908,-8.491 1.148,-1.34 2.265,-2.705 3.368,-4.082 0.182,-0.228 0.643,-0.817 0.962,-1.224 0.466,-0.612 0.93,-1.222 1.389,-1.837 2.176,-2.922 4.259,-5.912 6.276,-8.945 3.172,-4.766 6.162,-9.662 8.909,-14.685 1.93,-3.529 6.099,-5.148 9.895,-4.451 -0.44,-1.116 -0.872,-2.232 -1.295,-3.35 -0.904,-2.392 -1.762,-4.802 -2.579,-7.224 -6.7,0.098 -13.405,0.121 -20.116,0.121 -5.122,0 -9.396,-4.275 -9.396,-9.395 0,-5.124 4.274,-9.397 9.396,-9.397 4.893,0 9.788,-0.003 14.682,-0.035 -2.947,-11.93 -5.025,-24.085 -6.427,-36.282 -0.212,-1.844 -0.397,-3.69 -0.568,-5.539 -0.47,-5.108 4.631,-9.395 9.396,-9.395 5.477,0 8.927,4.297 9.396,9.395 0.205,2.226 0.439,4.448 0.699,6.667 0.115,0.982 0.242,1.961 0.369,2.941 0.014,0.114 0.029,0.218 0.04,0.296 0.109,0.779 0.224,1.556 0.34,2.333 0.747,5.016 1.655,10.007 2.686,14.972 0.995,4.791 2.133,9.553 3.405,14.277 0.478,-0.014 0.957,-0.026 1.435,-0.043 5.916,-0.201 11.827,-0.523 17.728,-0.978 2.817,-0.218 5.63,-0.481 8.44,-0.773 1.409,-0.147 2.815,-0.31 4.221,-0.476 0.582,-0.069 1.164,-0.145 1.746,-0.219 0.243,-0.033 1.497,-0.199 1.666,-0.222 1.645,-0.233 3.13,-0.352 4.597,-0.065 -1.866,-5.788 -2.51,-11.901 -0.937,-17.931 4.102,-15.71 21.243,-21.511 35.658,-22.707 12.818,-1.064 26.566,1.469 37.965,7.483 2.724,1.436 4.288,4.255 4.562,7.202 9.839,-8.039 24.106,-9.693 36.338,-9.307 10.935,0.346 21.924,2.283 32.482,5.098 8.179,2.182 16.53,4.921 23.995,8.965 4.498,2.436 5.895,8.547 3.371,12.855"
             style="fill:#480000;fill-opacity:1;fill-rule:nonzero;stroke:none"
             id="path66" /></g><g
           id="g68"
           transform="translate(1299.9106,1249.8076)"><path
             d="m 0,0 c -3.125,11.359 -15.578,18.807 -27.063,15.365 -44.5,-13.334 -89.875,-26.677 -125.708,-57.657 -9.078,-7.85 -8.016,-23.097 0,-31.113 8.936,-8.935 22.05,-7.836 31.113,0 1.11,0.96 2.245,1.885 3.376,2.818 0.36,0.22 4.083,3.086 4.868,3.638 4.394,3.093 8.99,5.892 13.655,8.553 4.224,2.41 8.567,4.604 12.948,6.709 2.447,1.176 4.926,2.285 7.41,3.378 0.097,0.042 0.184,0.08 0.273,0.118 1.172,0.482 2.345,0.961 3.522,1.431 19.627,7.851 40.013,13.636 60.24,19.697 C -3.888,-23.623 3.234,-11.757 0,0"
             style="fill:#ffffff;fill-opacity:1;fill-rule:nonzero;stroke:none"
             id="path70" /></g><g
           id="g72"
           transform="translate(2059.4302,557.8633)"><path
             d="m 0,0 c -24.123,59.503 -74.114,105.438 -136.536,121.955 -13.082,3.461 -26.707,5.323 -40.198,6.141 -11.982,0.725 -22,-10.557 -22,-22 0,-12.541 10.034,-21.276 22,-22 3.502,-0.212 6.989,-0.511 10.476,-0.898 0.075,-0.009 0.135,-0.014 0.205,-0.022 0.236,-0.037 0.515,-0.08 0.856,-0.132 1.718,-0.26 3.428,-0.57 5.138,-0.882 7.37,-1.34 14.625,-3.26 21.76,-5.526 3.28,-1.042 6.512,-2.227 9.724,-3.458 0.42,-0.161 1.91,-0.782 2.732,-1.12 1.023,-0.459 2.043,-0.925 3.06,-1.397 6.75,-3.127 13.251,-6.772 19.555,-10.716 2.914,-1.823 5.748,-3.771 8.552,-5.757 0.945,-0.67 1.876,-1.36 2.803,-2.053 -1.69,1.255 1.727,-1.379 2.305,-1.849 5.816,-4.737 11.261,-9.917 16.442,-15.339 2.407,-2.519 4.705,-5.142 6.962,-7.796 0.689,-0.81 1.363,-1.633 2.032,-2.46 -0.544,0.662 1.729,-2.212 2.111,-2.729 4.575,-6.176 8.663,-12.699 12.423,-19.396 1.761,-3.133 3.382,-6.342 4.955,-9.573 0.793,-1.627 1.538,-3.277 2.284,-4.927 0.105,-0.234 0.195,-0.432 0.278,-0.615 0.093,-0.232 0.204,-0.508 0.339,-0.841 2.18,-5.377 4.042,-10.886 5.741,-16.432 2.105,-6.878 3.796,-13.88 5.077,-20.957 0.242,-1.338 0.449,-2.683 0.654,-4.028 0.023,-0.194 0.047,-0.387 0.069,-0.582 0.38,-3.377 0.618,-6.768 0.759,-10.163 0.258,-6.247 0.042,-12.51 -0.594,-18.728 -0.02,-0.198 -0.046,-0.394 -0.068,-0.591 -0.153,-0.963 -0.315,-1.924 -0.489,-2.883 -0.55,-3.041 -1.244,-6.054 -2.03,-9.042 -0.716,-2.731 -1.556,-5.43 -2.467,-8.101 -0.454,-1.332 -0.943,-2.651 -1.444,-3.964 -0.1,-0.264 -0.207,-0.525 -0.311,-0.786 -2.268,-5.085 -4.909,-9.999 -7.829,-14.739 -1.497,-2.433 -3.096,-4.804 -4.745,-7.136 -0.574,-0.812 -1.171,-1.606 -1.765,-2.403 -0.321,-0.397 -0.64,-0.799 -0.965,-1.195 -7.939,-9.695 -17.135,-18.316 -26.934,-26.104 -0.107,-0.08 -0.218,-0.163 -0.343,-0.256 -1.295,-0.972 -2.606,-1.923 -3.921,-2.868 -2.902,-2.084 -5.861,-4.088 -8.851,-6.044 -5.962,-3.901 -12.099,-7.532 -18.335,-10.979 -6.537,-3.613 -13.213,-6.972 -19.967,-10.158 -3.353,-1.582 -6.733,-3.104 -10.128,-4.593 -0.532,-0.232 -1.512,-0.652 -2.414,-1.037 -1.521,-0.63 -3.043,-1.26 -4.57,-1.876 -15.43,-6.222 -31.2,-11.588 -47.122,-16.402 -35.082,-10.606 -71.008,-18.334 -107.112,-24.525 -9.57,-1.641 -19.162,-3.15 -28.767,-4.569 -4.667,-0.69 -9.339,-1.349 -14.013,-1.99 -0.049,-0.007 -0.1,-0.014 -0.154,-0.022 -0.742,-0.098 -1.485,-0.196 -2.227,-0.294 -2.754,-0.362 -5.51,-0.713 -8.265,-1.059 -19.916,-2.501 -39.884,-4.586 -59.876,-6.367 -40.308,-3.591 -80.729,-5.839 -121.173,-7.155 -73.79,-2.4 -147.702,-1.643 -221.45,1.744 -46.023,2.114 -92.292,4.719 -138.03,10.581 -0.663,0.114 -5.087,0.748 -6.566,1.006 -5.184,0.904 -10.36,1.859 -15.529,2.846 -10.565,2.014 -21.095,4.22 -31.588,6.579 -22.731,5.11 -45.269,11.085 -67.526,17.972 -11.608,3.591 -23.121,7.482 -34.537,11.64 -5.52,2.011 -11.009,4.111 -16.474,6.268 -2.733,1.079 -5.457,2.187 -8.176,3.305 -0.323,0.133 -0.944,0.393 -1.532,0.639 -1.345,0.574 -2.689,1.15 -4.03,1.733 -22.133,9.619 -43.652,20.713 -64.045,33.632 -4.767,3.02 -9.448,6.172 -14.068,9.411 -2.287,1.605 -4.544,3.25 -6.79,4.911 -0.444,0.328 -0.882,0.665 -1.323,0.997 -0.722,0.557 -2.441,1.88 -3.002,2.326 -8.859,7.048 -17.265,14.658 -25.168,22.764 -3.716,3.809 -7.271,7.773 -10.713,11.831 -1.203,1.417 -2.373,2.861 -3.532,4.314 0.836,-0.998 -3.392,4.564 -4.267,5.802 -6.269,8.867 -11.706,18.307 -16.323,28.134 -0.497,1.057 -0.97,2.126 -1.444,3.195 -0.976,2.404 -1.872,4.84 -2.736,7.286 -1.916,5.412 -3.489,10.939 -4.841,16.518 -1.054,4.35 -1.884,8.753 -2.575,13.175 0.107,-0.4 -0.591,5.231 -0.706,6.557 -0.285,3.281 -0.44,6.573 -0.544,9.865 -0.186,5.825 -0.026,11.658 0.323,17.475 0.181,3.009 0.464,6.011 0.779,9.008 0.102,0.969 0.214,1.937 0.322,2.905 0.038,0.043 0.597,4.145 0.733,4.958 1.089,6.464 2.634,12.844 4.478,19.131 0.885,3.014 1.906,5.986 2.972,8.94 0.471,1.302 0.979,2.592 1.489,3.879 0.321,0.723 0.643,1.445 0.975,2.161 3.937,8.598 8.846,16.723 14.404,24.365 0.106,0.066 2.82,3.539 3.484,4.322 1.856,2.19 3.806,4.301 5.783,6.382 3.625,3.816 7.493,7.396 11.472,10.838 1.188,1.027 2.402,2.023 3.623,3.01 -0.437,-0.386 3.537,2.68 4.428,3.321 4.34,3.121 8.845,6.006 13.422,8.766 8.633,5.207 17.677,9.715 26.902,13.777 0.071,0.003 4.429,1.827 5.382,2.203 2.357,0.929 4.733,1.811 7.113,2.683 5.273,1.932 10.61,3.689 15.972,5.359 10.834,3.373 21.839,6.188 32.905,8.68 11.072,2.493 22.238,4.556 33.438,6.375 4.81,0.782 9.632,1.488 14.457,2.164 1.211,0.16 4.466,0.597 5.329,0.706 2.97,0.376 5.943,0.729 8.917,1.075 11.908,1.383 22,8.96 22,22 0,10.942 -10.06,23.387 -22,22 -53.512,-6.218 -106.924,-16.146 -155.731,-39.881 -48.704,-23.685 -87.037,-64.561 -100.879,-117.618 -13.151,-50.411 -6.611,-105.118 18.92,-150.507 23.632,-42.016 62.124,-74.202 102.894,-98.798 42.723,-25.774 90.069,-44.146 137.718,-58.518 39.866,-12.023 81.026,-21.95 122.344,-27.399 47.888,-6.316 96.37,-8.998 144.591,-11.181 73.989,-3.347 148.138,-3.973 222.165,-1.493 81.556,2.733 163.221,9.305 243.7,23.104 68.522,11.749 138.473,28.879 199.918,62.409 47.813,26.092 92.729,67.607 101.528,123.888 C 17.524,-63.334 12.343,-30.447 0,0"
             style="fill:#231f20;fill-opacity:1;fill-rule:nonzero;stroke:none"
             id="path74" /></g><g
           id="g76"
           transform="translate(1780.5449,589.1729)"><path
             d="m 0,0 c -12.033,3.311 -21.616,-3.594 -26.406,-13.872 0.638,1.513 1.286,3.066 0.663,1.622 -0.231,-0.534 -0.472,-1.063 -0.713,-1.593 -0.483,-1.063 -0.996,-2.112 -1.519,-3.155 -1.145,-2.284 -2.404,-4.509 -3.726,-6.694 -1.24,-2.052 -2.571,-4.047 -3.95,-6.008 -0.405,-0.576 -0.83,-1.138 -1.248,-1.704 -0.174,-0.214 -0.345,-0.431 -0.52,-0.644 -3.36,-4.088 -7.016,-7.927 -10.839,-11.582 -1.906,-1.823 -3.873,-3.581 -5.87,-5.305 -1.018,-0.878 -2.052,-1.736 -3.091,-2.589 -0.396,-0.326 -1.006,-0.811 -1.602,-1.281 -9.083,-6.82 -18.791,-12.793 -28.783,-18.177 -5.739,-3.093 -11.598,-5.959 -17.525,-8.673 -1.464,-0.67 -2.934,-1.324 -4.407,-1.974 -0.473,-0.208 -1.229,-0.534 -1.955,-0.847 -2.657,-1.098 -5.325,-2.172 -8.007,-3.214 -27.825,-10.818 -56.82,-18.541 -86.056,-24.442 -7.796,-1.574 -15.623,-2.991 -23.468,-4.295 -3.814,-0.634 -7.633,-1.229 -11.457,-1.803 -1.921,-0.289 -3.844,-0.565 -5.768,-0.838 -0.725,-0.104 -1.453,-0.204 -2.179,-0.305 -16.178,-2.124 -32.424,-3.711 -48.7,-4.851 -32.693,-2.288 -65.533,-2.632 -98.265,-0.999 -15.748,0.785 -31.472,2.081 -47.134,3.903 -1.832,0.213 -3.662,0.437 -5.492,0.666 -0.545,0.068 -1.468,0.188 -2.353,0.304 -3.269,0.454 -6.534,0.931 -9.796,1.437 -7.272,1.127 -14.522,2.406 -21.743,3.822 -13.633,2.672 -27.155,5.921 -40.477,9.859 -6.211,1.836 -12.369,3.853 -18.466,6.039 -2.813,1.008 -5.607,2.068 -8.389,3.162 -1.102,0.432 -2.197,0.881 -3.292,1.329 -0.274,0.12 -0.55,0.237 -0.824,0.357 -10.226,4.481 -20.153,9.69 -29.473,15.845 -1.983,1.31 -3.926,2.68 -5.841,4.085 -0.775,0.625 -1.55,1.249 -2.311,1.89 -3.609,3.038 -7.012,6.318 -10.182,9.811 -0.831,0.915 -1.634,1.856 -2.426,2.805 -1.495,2.06 -2.891,4.192 -4.178,6.389 -0.735,1.255 -1.422,2.538 -2.072,3.838 -0.487,1.318 -1.849,4.768 -2.28,6.261 -0.574,1.989 -1.026,4.013 -1.394,6.05 -0.003,0.029 -0.007,0.058 -0.009,0.087 -0.123,1.379 -0.186,2.763 -0.222,4.147 -0.069,2.68 0.057,5.36 0.303,8.027 0.234,1.356 0.507,2.705 0.808,4.047 C -610.02,-7.37 -616.026,4.707 -628,8 c -11.129,3.062 -24.445,-3.661 -27.063,-15.365 -5.062,-22.638 -2.462,-45.614 9.045,-65.916 11.112,-19.606 29.419,-34.64 48.567,-45.948 49.001,-28.935 108.383,-39.324 164.167,-45.107 66.439,-6.889 133.638,-4.411 199.698,4.976 59.17,8.408 119.62,23.286 172.184,52.574 33.124,18.456 62.211,44.095 76.768,79.723 C 19.909,-15.941 10.524,-2.895 0,0"
             style="fill:#231f20;fill-opacity:1;fill-rule:nonzero;stroke:none"
             id="path78" /></g><g
           id="g80"
           transform="translate(1814.2632,1697.0469)"><path
             d="m 0,0 c -9.645,30.588 -25.934,60.385 -50.75,81.27 -26.927,22.66 -62.222,34.984 -97.233,36.845 -28.48,1.514 -57.607,-8.131 -77.382,-29.136 -18.805,-19.977 -27.416,-46.329 -29.809,-73.189 -2.331,-26.173 3.174,-52.502 13.716,-76.38 9.458,-21.422 26.542,-41.998 48.321,-51.574 27.813,-12.231 62.632,-10.406 87.549,8.113 31.135,23.141 46.63,66.242 29.315,102.487 -2.65,5.548 -6.805,10.962 -11.681,14.74 -8.504,6.584 -16.544,9.642 -27.183,11.056 -16.944,2.252 -35.059,-7.316 -48.079,-17.154 -9.547,-7.215 -14.493,-18.83 -7.892,-30.099 5.524,-9.43 20.507,-15.141 30.1,-7.893 3.968,2.998 8.078,5.754 12.443,8.144 0.764,0.418 2.599,1.243 3.763,1.77 1.26,0.426 2.535,0.801 3.822,1.133 0.379,0.097 0.761,0.183 1.143,0.263 0.709,0.032 1.418,0.034 2.126,0.014 0.047,-0.012 0.086,-0.021 0.136,-0.033 0.165,-0.041 0.327,-0.094 0.491,-0.141 0.138,-0.084 0.279,-0.172 0.419,-0.259 0.226,-0.223 0.45,-0.446 0.668,-0.674 0.501,-0.787 0.958,-1.597 1.383,-2.428 0.077,-0.232 0.164,-0.46 0.24,-0.693 0.462,-1.414 0.811,-2.866 1.127,-4.319 0.042,-0.193 0.07,-0.388 0.107,-0.584 0.119,-1.5 0.181,-3.006 0.189,-4.511 0.01,-1.653 -0.085,-3.305 -0.211,-4.952 -0.007,-0.095 -0.022,-0.191 -0.029,-0.287 -0.643,-3.664 -1.654,-7.254 -2.887,-10.759 -0.1,-0.284 -0.216,-0.561 -0.322,-0.842 -0.735,-1.571 -1.552,-3.104 -2.403,-4.614 -0.912,-1.619 -1.926,-3.177 -2.97,-4.712 -0.028,-0.041 -0.059,-0.079 -0.086,-0.12 -0.388,-0.49 -0.819,-1.029 -1.125,-1.38 -1.263,-1.456 -2.622,-2.823 -4.012,-4.157 -0.629,-0.603 -2.173,-1.883 -3.064,-2.629 -0.899,-0.615 -1.813,-1.209 -2.735,-1.787 -1.317,-0.822 -5.478,-2.748 -5.326,-2.814 -4.416,-1.565 -8.955,-2.772 -13.567,-3.59 -1.265,-0.119 -2.533,-0.191 -3.801,-0.24 -2.565,-0.102 -5.134,-0.012 -7.69,0.199 -0.914,0.17 -1.823,0.357 -2.729,0.562 -2.401,0.547 -4.754,1.28 -7.066,2.122 -0.757,0.363 -1.509,0.738 -2.255,1.127 -2.292,1.199 -4.492,2.57 -6.625,4.033 -0.123,0.086 -0.261,0.181 -0.406,0.285 -0.435,0.365 -0.881,0.717 -1.31,1.088 -2.002,1.732 -3.888,3.594 -5.701,5.521 -0.838,0.893 -1.651,1.811 -2.444,2.742 -0.592,0.864 -3.209,4.379 -4.069,5.715 -2.842,4.412 -5.288,9.073 -7.453,13.852 -0.43,1.086 -0.845,2.176 -1.244,3.273 -1.003,2.75 -1.889,5.543 -2.701,8.354 -1.549,5.359 -2.714,10.826 -3.589,16.334 -0.128,1.133 -0.249,2.265 -0.352,3.4 -0.27,2.971 -0.421,5.951 -0.497,8.934 -0.145,5.685 0.111,11.381 0.706,17.035 0.152,0.961 0.303,1.922 0.475,2.879 0.51,2.849 1.15,5.676 1.877,8.476 0.664,2.557 1.443,5.08 2.296,7.579 0.395,1.158 0.827,2.302 1.266,3.443 2.171,4.775 4.795,9.34 7.81,13.633 0.023,0.035 0.049,0.069 0.074,0.103 0.525,0.633 1.045,1.27 1.588,1.889 1.809,2.06 3.759,3.993 5.792,5.832 0.551,0.498 1.116,0.98 1.687,1.459 0.117,0.084 0.234,0.17 0.351,0.254 2.301,1.625 4.721,3.074 7.202,4.407 0.994,0.53 2.007,1.023 3.026,1.503 2.71,1.029 5.49,1.87 8.299,2.582 1.516,0.385 5.785,1.098 7.105,1.361 2.196,0.194 4.399,0.311 6.604,0.366 3.353,0.084 6.709,-0.039 10.054,-0.268 1.526,-0.104 3.048,-0.256 4.568,-0.421 0.717,-0.114 1.436,-0.222 2.152,-0.341 8.399,-1.416 16.646,-3.659 24.728,-6.33 3.291,-1.086 6.57,-2.144 9.802,-3.4 0.27,-0.121 0.542,-0.238 0.812,-0.362 1.847,-0.841 3.662,-1.75 5.462,-2.685 3.044,-1.582 5.999,-3.332 8.889,-5.18 1.432,-0.914 2.833,-1.877 4.223,-2.853 0.505,-0.354 1.001,-0.721 1.5,-1.086 5.293,-4.261 10.178,-9.018 14.688,-14.095 1.127,-1.27 2.217,-2.571 3.293,-3.884 0.134,-0.164 0.263,-0.33 0.396,-0.496 2.171,-2.916 4.207,-5.931 6.149,-9.004 3.929,-6.211 7.342,-12.741 10.389,-19.427 0.221,-0.485 0.434,-0.975 0.649,-1.461 0.561,-1.383 1.112,-2.769 1.644,-4.164 1.426,-3.743 2.712,-7.538 3.916,-11.358 2.383,-7.558 4.302,-15.26 5.909,-23.019 0.792,-3.827 1.475,-7.672 2.098,-11.53 0.164,-1.011 0.304,-2.029 0.454,-3.043 0.179,-1.386 0.509,-3.894 0.622,-4.888 0.949,-8.416 1.508,-16.871 1.798,-25.334 0.6,-17.469 -0.174,-34.976 -1.953,-52.36 -0.216,-2.115 -0.457,-4.23 -0.705,-6.343 -0.086,-0.73 -0.292,-2.327 -0.453,-3.575 -0.552,-3.905 -1.152,-7.804 -1.807,-11.695 -1.474,-8.764 -3.246,-17.479 -5.249,-26.137 -3.941,-17.032 -8.951,-33.822 -14.972,-50.234 -1.408,-3.838 -2.891,-7.649 -4.42,-11.442 -0.282,-0.701 -0.572,-1.402 -0.861,-2.101 -0.804,-1.871 -1.621,-3.738 -2.455,-5.596 -3.338,-7.439 -6.965,-14.748 -10.847,-21.92 -3.717,-6.864 -7.729,-13.568 -12.009,-20.097 -1.979,-3.02 -4.038,-5.985 -6.15,-8.912 -0.812,-1.124 -1.646,-2.23 -2.48,-3.338 -0.517,-0.649 -1.033,-1.297 -1.556,-1.94 -4.396,-5.414 -9.107,-10.57 -14.103,-15.433 -2.289,-2.231 -4.663,-4.371 -7.09,-6.45 -0.924,-0.789 -1.871,-1.552 -2.817,-2.314 -0.418,-0.307 -0.831,-0.617 -1.251,-0.921 -2.83,-2.043 -5.765,-3.936 -8.771,-5.712 -10.306,-6.09 -13.973,-19.719 -7.892,-30.099 6.034,-10.303 19.771,-13.997 30.1,-7.893 26.668,15.756 47.227,40.25 63.477,66.23 18.451,29.498 31.682,62.594 41.226,95.967 10.148,35.485 15.92,72.574 17.063,109.459 C 13.83,-68.691 10.429,-33.078 0,0"
             style="fill:#231f20;fill-opacity:1;fill-rule:nonzero;stroke:none"
             id="path82" /></g><g
           id="g84"
           transform="translate(1505.4546,2115.5488)"><path
             d="m 0,0 c -17.449,17.945 -39.086,31.086 -62.546,39.529 -24.399,8.784 -50.43,9.846 -75.866,6.121 -20.171,-2.955 -40.827,-10.336 -57.186,-22.685 -16.264,-12.279 -29.572,-27.416 -39.941,-45 -19.552,-33.16 -29.005,-75.541 -18.124,-113.164 11.56,-39.972 48.175,-68.125 89.537,-70.242 31.067,-1.59 62.087,15.246 81.177,39.128 18.603,23.276 31.006,53.993 18.241,82.952 -5.836,13.242 -19.327,22.33 -32.992,25.82 -18.154,4.639 -37.775,1.4 -55.452,-3.666 -11.52,-3.301 -18.57,-15.412 -15.366,-27.063 3.154,-11.462 15.539,-18.666 27.063,-15.365 4.414,1.266 8.862,2.371 13.368,3.256 0.837,0.167 2.708,0.453 3.944,0.647 1.235,0.117 2.473,0.216 3.711,0.291 3.027,0.179 6.063,0.134 9.085,-0.096 1.514,-0.289 3.003,-0.688 4.474,-1.143 0.097,-0.031 0.19,-0.068 0.287,-0.099 0.523,-0.284 1.04,-0.58 1.55,-0.887 0.02,-0.012 0.039,-0.027 0.059,-0.039 0.207,-0.201 0.401,-0.416 0.602,-0.623 0.167,-0.279 0.333,-0.557 0.489,-0.842 0.242,-0.789 0.456,-1.585 0.638,-2.391 0.027,-0.541 0.043,-1.08 0.053,-1.621 0.022,-1.164 -0.028,-2.33 -0.099,-3.491 -0.008,-0.13 -0.024,-0.259 -0.034,-0.39 -0.384,-2.011 -0.887,-4 -1.462,-5.964 -0.371,-1.269 -0.798,-2.519 -1.242,-3.764 -0.127,-0.357 -0.266,-0.711 -0.402,-1.066 -2.315,-5 -5.176,-9.743 -8.372,-14.225 -0.069,-0.098 -0.129,-0.182 -0.19,-0.268 -0.801,-0.98 -1.622,-1.943 -2.458,-2.894 -2.189,-2.486 -4.534,-4.832 -6.968,-7.078 -1.135,-1.047 -2.307,-2.051 -3.493,-3.039 -0.042,-0.035 -0.075,-0.062 -0.115,-0.096 -2.632,-1.922 -5.387,-3.672 -8.217,-5.285 -1.358,-0.776 -2.75,-1.492 -4.15,-2.188 -0.436,-0.216 -1.107,-0.519 -1.765,-0.81 -2.529,-0.946 -5.113,-1.744 -7.728,-2.42 -1.542,-0.401 -3.104,-0.72 -4.67,-1.016 -0.071,-0.013 -0.129,-0.025 -0.196,-0.036 -3.391,-0.329 -6.805,-0.36 -10.205,-0.186 -0.662,0.033 -1.789,0.148 -2.741,0.25 -0.816,0.152 -1.63,0.316 -2.442,0.49 -2.837,0.607 -5.624,1.424 -8.364,2.375 -0.543,0.271 -3.913,1.678 -4.97,2.215 -1.958,0.994 -3.855,2.101 -5.728,3.248 -0.883,0.541 -1.749,1.109 -2.605,1.691 -0.442,0.393 -3.561,2.797 -4.523,3.678 -1.475,1.349 -2.865,2.789 -4.222,4.256 -0.56,0.605 -1.713,2.029 -2.461,2.951 -1.897,2.73 -3.586,5.603 -5.111,8.555 -0.335,0.648 -0.932,1.992 -1.389,3.033 -0.4,1.093 -0.785,2.194 -1.147,3.301 -1.314,4.011 -2.249,8.141 -2.967,12.294 -0.036,0.349 -0.08,0.694 -0.115,1.041 -0.198,1.991 -0.308,3.987 -0.39,5.985 -0.18,4.398 -0.029,8.805 0.305,13.191 0.071,0.924 0.327,3.13 0.46,4.332 0.174,1.053 0.361,2.104 0.554,3.153 0.827,4.482 1.935,8.908 3.2,13.285 1.179,4.078 2.583,8.09 4.113,12.049 0.159,0.412 0.33,0.818 0.495,1.229 0.06,0.14 0.118,0.271 0.169,0.386 1.009,2.269 2.099,4.502 3.22,6.717 1.914,3.785 4.03,7.464 6.262,11.07 1.109,1.791 2.277,3.545 3.463,5.286 0.666,0.976 2.878,3.935 3.436,4.718 4.716,5.777 9.966,11.115 15.654,15.935 0.405,0.342 0.821,0.672 1.233,1.006 1.494,1.096 3.03,2.135 4.583,3.147 3.357,2.183 6.884,4.095 10.506,5.802 0.419,0.159 0.836,0.325 1.256,0.479 2.452,0.902 4.933,1.734 7.418,2.538 5.981,1.933 12.111,3.375 18.294,4.48 0.427,0.076 0.854,0.142 1.282,0.211 0.696,0.089 2.024,0.266 2.643,0.33 2.762,0.287 5.536,0.443 8.309,0.556 5.908,0.24 11.828,-0.008 17.711,-0.564 0.415,-0.039 1.118,-0.121 1.743,-0.196 0.578,-0.091 1.157,-0.187 1.734,-0.285 2.635,-0.439 5.249,-1 7.852,-1.599 5.602,-1.291 11.095,-3.028 16.482,-5.028 0.707,-0.261 1.404,-0.548 2.103,-0.826 0.447,-0.189 0.889,-0.377 1.173,-0.506 2.403,-1.082 4.759,-2.269 7.095,-3.488 5.061,-2.643 9.914,-5.668 14.61,-8.908 1.084,-0.748 2.147,-1.528 3.21,-2.307 0.005,-0.004 0.009,-0.006 0.014,-0.01 1.965,-1.568 3.873,-3.207 5.754,-4.875 4.289,-3.802 8.291,-7.919 12.091,-12.209 1.19,-1.341 2.334,-2.724 3.464,-4.117 -0.495,0.543 2.944,-3.998 3.686,-5.07 3.298,-4.775 6.235,-9.791 8.928,-14.93 1.251,-2.388 2.401,-4.83 3.515,-7.284 0.016,-0.036 0.029,-0.063 0.044,-0.099 0.458,-1.138 0.896,-2.285 1.327,-3.433 2.089,-5.567 3.745,-11.287 5.119,-17.069 0.643,-2.705 1.166,-5.437 1.649,-8.173 0.073,-0.418 0.138,-0.836 0.205,-1.254 0.092,-0.707 0.269,-2.031 0.334,-2.645 0.392,-3.701 0.649,-7.41 0.77,-11.129 0.222,-6.836 -0.122,-13.683 -0.84,-20.482 -0.039,-0.371 -0.086,-0.742 -0.129,-1.115 -0.192,-1.269 -0.387,-2.541 -0.603,-3.807 -0.62,-3.639 -1.377,-7.253 -2.207,-10.85 -1.644,-7.121 -3.714,-14.138 -6.036,-21.066 -1.148,-3.428 -2.386,-6.824 -3.668,-10.203 -0.652,-1.713 -1.327,-3.418 -2.009,-5.121 -0.291,-0.725 -0.589,-1.449 -0.886,-2.174 -3.048,-7.089 -6.355,-14.066 -9.817,-20.961 -7.49,-14.918 -15.829,-29.4 -24.531,-43.641 -18.508,-30.289 -38.823,-59.433 -58.797,-88.763 -38.235,-56.142 -79.296,-115.196 -96.102,-181.994 -7.866,-31.264 -9.219,-64.309 -0.565,-95.563 9.641,-34.818 31.465,-65.133 57.793,-89.363 15.547,-14.309 32.818,-26.891 50.658,-38.174 10.144,-6.418 24.202,-2.176 30.1,7.893 6.221,10.619 2.223,23.701 -7.892,30.099 -8.782,5.555 -17.342,11.436 -25.636,17.69 -0.945,0.755 -3.581,2.816 -4.346,3.438 -1.886,1.532 -3.742,3.099 -5.588,4.679 -3.839,3.287 -7.564,6.707 -11.202,10.215 -6.478,6.246 -12.555,12.904 -18.191,19.92 -0.006,0.007 -0.015,0.017 -0.022,0.027 -0.289,0.387 -0.583,0.771 -0.871,1.16 -1.184,1.596 -2.328,3.221 -3.458,4.856 -2.375,3.437 -4.593,6.978 -6.701,10.585 -1.877,3.213 -3.612,6.508 -5.252,9.846 -0.721,1.469 -1.402,2.955 -2.071,4.447 -0.249,0.625 -0.504,1.248 -0.747,1.875 -2.63,6.786 -4.672,13.79 -6.22,20.897 -0.515,2.363 -0.95,4.744 -1.334,7.133 -0.131,1.017 -0.299,2.343 -0.373,3.076 -0.199,1.98 -0.341,3.967 -0.46,5.953 -0.427,7.129 -0.283,14.285 0.254,21.404 0.129,1.727 0.298,3.45 0.48,5.17 0.052,0.49 0.112,0.981 0.169,1.471 0.496,3.346 1.079,6.678 1.741,9.995 1.468,7.36 3.381,14.628 5.566,21.806 2.26,7.429 4.893,14.742 7.747,21.963 0.582,1.474 1.186,2.939 1.792,4.404 0.261,0.605 0.523,1.211 0.787,1.814 1.691,3.868 3.461,7.698 5.273,11.506 14.81,31.13 33.226,60.451 52.208,89.168 38.165,57.738 81.416,113.414 110.426,176.612 13.62,29.668 23.931,60.718 25.477,93.564 C 49.381,-77.416 31.512,-32.412 0,0"
             style="fill:#231f20;fill-opacity:1;fill-rule:nonzero;stroke:none"
             id="path86" /></g><g
           id="g88"
           transform="translate(1136.2207,1646.8691)"><path
             d="M 0,0 C -0.012,-0.002 -0.024,-0.002 -0.036,-0.004 0.211,0.027 0.495,0.063 0.827,0.104 -2.795,-0.357 -7.466,-0.949 0,0 m 76.122,-134.088 c 0.161,1.051 0.527,3.678 0.731,4.715 0.892,4.549 2.154,9.019 3.567,13.432 1.305,4.076 2.831,8.078 4.438,12.043 0.393,0.902 0.791,1.802 1.192,2.701 1.128,2.529 2.305,5.035 3.495,7.537 4.488,9.439 9.329,18.707 14.076,28.015 10.948,21.465 21.585,43.393 28.975,66.377 12.615,39.239 8.643,83.725 -5.711,121.905 -14.377,38.238 -38.58,73.273 -73.12,95.849 C 37.438,229.158 19,235.24 -0.314,237.191 c -19.685,1.989 -39.535,-3.345 -56.994,-12.16 -21.648,-10.929 -38.554,-28.984 -53.044,-47.996 -11.473,-15.053 -16.535,-32.041 -18.44,-50.687 -1.872,-18.338 0.914,-37.463 5.479,-55.213 4.87,-18.928 12.785,-37.498 23.005,-54.151 20.177,-32.875 53.089,-61.64 93.627,-61.427 1.911,0.011 3.818,0.152 5.719,0.336 1.655,0.158 3.343,0.384 5.007,0.619 -5.455,-0.782 4.64,0.631 5.642,0.765 3.789,0.547 7.484,1.414 11.108,2.651 9.919,3.384 17.963,8.297 26.023,14.875 12.651,10.324 21.127,26.049 25.655,41.504 8.439,28.802 3.645,67.974 -21.398,87.605 -10.704,8.391 -21.812,12.699 -35.358,14.068 -11.928,1.206 -24.692,-1.894 -35.635,-6.507 -5.566,-2.346 -9.963,-4.672 -13.148,-10.11 -2.976,-5.082 -3.779,-11.273 -2.218,-16.953 2.869,-10.428 15.99,-20.033 27.063,-15.365 3.845,1.621 7.758,3 11.795,4.059 1.374,0.362 2.766,0.644 4.162,0.902 0.786,0.058 1.573,0.105 2.36,0.137 1.484,0.058 2.969,0.007 4.451,-0.08 1.381,-0.278 2.738,-0.661 4.079,-1.084 0.061,-0.02 0.108,-0.034 0.164,-0.051 1.15,-0.584 2.258,-1.248 3.341,-1.946 0.833,-0.742 1.634,-1.519 2.407,-2.324 0.345,-0.358 0.67,-0.736 0.999,-1.111 1.292,-1.906 2.427,-3.92 3.452,-5.981 0.014,-0.027 0.024,-0.046 0.037,-0.074 0.516,-1.398 0.975,-2.816 1.392,-4.246 0.59,-2.021 1.049,-4.08 1.428,-6.15 0.099,-0.805 0.2,-1.69 0.243,-2.272 0.135,-1.822 0.175,-3.648 0.178,-5.474 0.004,-2.207 -0.116,-4.412 -0.313,-6.61 C 31.826,35.861 31.672,34.843 31.55,34.213 31.196,32.384 30.748,30.572 30.261,28.773 29.845,27.23 29.355,25.709 28.84,24.197 28.655,23.652 28.319,22.789 28.009,22.009 26.875,19.645 25.594,17.354 24.204,15.134 23.833,14.541 23.442,13.961 23.046,13.384 22.502,12.689 21.855,11.877 21.431,11.402 20.375,10.219 19.246,9.104 18.095,8.016 17.575,7.525 17.035,7.057 16.495,6.588 14.288,5.053 11.952,3.709 9.543,2.518 9.395,2.466 9.247,2.41 9.099,2.357 7.19,1.672 5.229,1.141 3.259,0.668 2.078,0.387 -0.797,-0.047 -1.258,-0.137 c -0.54,-0.051 -1.08,-0.097 -1.62,-0.142 -2.99,-0.242 -5.993,-0.215 -8.982,-0.002 -1.093,0.168 -2.872,0.433 -3.749,0.627 -1.805,0.396 -3.582,0.91 -5.346,1.455 -0.701,0.217 -1.393,0.463 -2.084,0.709 -0.967,0.443 -3.655,1.609 -4.674,2.14 -3.391,1.768 -6.617,3.836 -9.736,6.043 -0.211,0.15 -0.414,0.307 -0.622,0.459 -0.123,0.098 -0.242,0.194 -0.345,0.278 -1.796,1.472 -3.521,3.031 -5.216,4.62 -2.976,2.784 -5.763,5.768 -8.44,8.841 -0.648,0.744 -1.282,1.5 -1.909,2.261 -0.184,0.291 -2.883,3.807 -3.64,4.887 -5.172,7.371 -9.614,15.24 -13.521,23.346 -0.824,1.711 -1.604,3.443 -2.371,5.179 -0.352,0.872 -0.697,1.747 -1.038,2.622 -1.713,4.402 -3.218,8.882 -4.585,13.402 -1.248,4.121 -2.311,8.296 -3.255,12.494 -0.464,2.068 -0.872,4.15 -1.258,6.236 -0.211,1.135 -0.688,4.391 -0.878,5.596 -0.776,7.19 -0.981,14.441 -0.564,21.66 0.085,1.483 0.223,2.961 0.376,4.438 0.095,0.566 0.187,1.133 0.289,1.697 0.677,3.752 1.654,7.443 2.862,11.059 0.172,0.515 0.491,1.332 0.801,2.101 0.422,0.863 0.859,1.719 1.315,2.565 1.548,2.871 3.445,5.521 5.393,8.132 0.134,0.176 1.453,1.92 1.901,2.484 0.901,1.126 1.827,2.231 2.753,3.335 1.791,2.136 3.657,4.209 5.55,6.254 3.825,4.132 7.918,8.009 12.197,11.668 0.742,0.634 1.503,1.246 2.261,1.859 1.841,1.363 3.741,2.645 5.661,3.895 3.882,2.523 7.964,4.726 12.159,6.683 0.6,0.231 1.198,0.465 1.801,0.688 1.898,0.697 3.831,1.295 5.773,1.857 1.901,0.549 3.83,0.996 5.765,1.406 0.847,0.18 1.701,0.328 2.554,0.477 3.539,0.359 7.104,0.439 10.659,0.33 1.678,-0.051 3.353,-0.189 5.024,-0.35 0.743,-0.129 1.484,-0.265 2.224,-0.41 3.725,-0.719 7.386,-1.746 10.986,-2.935 1.433,-0.473 2.844,-1.004 4.249,-1.551 0.991,-0.451 1.974,-0.922 2.952,-1.402 3.544,-1.737 6.964,-3.719 10.302,-5.821 1.7,-1.07 3.359,-2.205 5.003,-3.358 0.719,-0.507 1.427,-1.029 2.134,-1.55 6.821,-5.469 13.043,-11.662 18.797,-18.234 1.427,-1.631 2.807,-3.303 4.169,-4.989 0.048,-0.058 0.103,-0.127 0.158,-0.195 0.356,-0.478 0.716,-0.953 1.071,-1.432 2.86,-3.873 5.526,-7.886 8.071,-11.97 4.854,-7.789 9.067,-15.971 12.768,-24.366 0.395,-0.97 0.778,-1.947 1.158,-2.925 0.835,-2.145 1.614,-4.311 2.374,-6.483 1.65,-4.718 3.08,-9.513 4.364,-14.343 1.188,-4.463 2.174,-8.979 3.033,-13.516 0.39,-2.055 0.724,-4.119 1.039,-6.184 0.157,-1.312 0.298,-2.625 0.429,-3.938 0.939,-9.507 1.009,-19.089 0.303,-28.612 -0.086,-1.161 -0.191,-2.319 -0.31,-3.475 C 95.153,34.639 94.703,31.229 94.506,30.098 93.66,25.24 92.508,20.439 91.158,15.699 89.767,10.816 88.02,6.035 86.245,1.281 c -1.002,-2.683 -2.061,-5.345 -3.137,-8.002 -0.111,-0.273 -0.3,-0.729 -0.497,-1.201 -0.562,-1.305 -1.127,-2.609 -1.701,-3.91 -4.553,-10.309 -9.583,-20.398 -14.689,-30.441 -9.79,-19.256 -19.98,-38.422 -27.178,-58.85 -6.961,-19.752 -9.05,-40.666 -4.766,-61.231 5.003,-24.011 20.721,-45.039 37.747,-61.986 4.57,-4.549 9.414,-8.814 14.351,-12.957 9.176,-7.701 22.084,-9.028 31.112,0 7.923,7.922 9.195,23.397 0,31.113 -5.361,4.498 -10.549,9.174 -15.51,14.112 -2.23,2.218 -4.373,4.521 -6.479,6.857 -1,1.11 -1.968,2.246 -2.935,3.383 -0.411,0.482 -1.558,1.936 -2.23,2.777 -2.684,3.664 -5.138,7.492 -7.358,11.451 -1.076,1.918 -2.042,3.893 -2.971,5.885 -0.474,1.237 -0.907,2.487 -1.325,3.744 -0.983,2.961 -1.732,5.995 -2.313,9.059 -0.083,0.943 -0.41,3.727 -0.465,4.832 -0.118,2.398 -0.074,4.803 0.03,7.201 0.04,0.934 0.111,1.865 0.191,2.795"
             style="fill:#231f20;fill-opacity:1;fill-rule:nonzero;stroke:none"
             id="path90" /></g><g
           id="g92"
           transform="translate(1145.9072,1604.1465)"><path
             d="M 0,0 C -0.021,-0.002 -0.042,-0.008 -0.063,-0.01 0.111,0.016 0.118,0.016 0,0"
             style="fill:#231f20;fill-opacity:1;fill-rule:nonzero;stroke:none"
             id="path94" /></g><g
           id="g96"><g
             id="g98" /><g
             id="g110"><g
               clip-path="url(#clipPath102)"
               opacity="0.309998"
               id="g108"><g
                 transform="translate(1835.1138,1069.3799)"
                 id="g106"><path
                   d="m 0,0 c -29.653,31.53 -50.195,-66.173 -51.695,-83.573 -6.571,-76.165 -32.276,-134.849 -66.924,-204.238 -25.598,-51.266 -58.098,-83.883 -107.479,-110.641 -19.421,-10.523 -47.091,-23.983 -69.135,-28.53 -16.864,-3.479 -36.093,3.931 -52.975,0.211 -57.944,-12.766 27.759,-48 52.412,-51.1 54.668,-6.875 102.185,8.229 148.519,36.873 114.755,70.942 148.983,192.113 178.865,319.641 9.97,42.546 7.592,71.574 -22.97,100.611"
                   style="fill:#d8c5a3;fill-opacity:1;fill-rule:nonzero;stroke:none"
                   id="path104" /></g></g></g></g><g
           id="g112"
           transform="translate(533.6035,544.5898)"><path
             d="M 0,0 C 49.787,-8.692 95.15,12.929 101.323,48.291 L -78.968,79.764 C -85.141,44.401 -49.786,8.689 0,0"
             style="fill:#7e461d;fill-opacity:1;fill-rule:nonzero;stroke:none"
             id="path114" /></g><g
           id="g116"
           transform="translate(455.9097,631.6553)"><path
             d="M 0,0 V 0 L 180.291,-31.473 C 186.465,3.889 151.109,39.602 101.323,48.292 51.538,56.982 6.173,35.362 0,0"
             style="fill:#7e461d;fill-opacity:1;fill-rule:nonzero;stroke:none"
             id="path118" /></g><g
           id="g120"
           transform="translate(203.5703,400.5742)"><path
             d="M 0,0 C 49.787,-8.692 95.15,12.929 101.323,48.291 L -78.968,79.764 C -85.141,44.401 -49.786,8.689 0,0"
             style="fill:#7e461d;fill-opacity:1;fill-rule:nonzero;stroke:none"
             id="path122" /></g><g
           id="g124"
           transform="translate(125.8765,487.6396)"><path
             d="M 0,0 V 0 L 180.291,-31.473 C 186.465,3.889 151.109,39.602 101.323,48.292 51.538,56.982 6.173,35.362 0,0"
             style="fill:#7e461d;fill-opacity:1;fill-rule:nonzero;stroke:none"
             id="path126" /></g><g
           id="g128"
           transform="translate(353.5854,250.5586)"><path
             d="M 0,0 C 49.787,-8.692 95.15,12.929 101.323,48.291 L -78.968,79.764 C -85.141,44.401 -49.786,8.689 0,0"
             style="fill:#7e461d;fill-opacity:1;fill-rule:nonzero;stroke:none"
             id="path130" /></g><g
           id="g132"
           transform="translate(275.8916,337.624)"><path
             d="M 0,0 V 0 L 180.291,-31.473 C 186.465,3.889 151.109,39.602 101.323,48.292 51.538,56.982 6.173,35.362 0,0"
             style="fill:#7e461d;fill-opacity:1;fill-rule:nonzero;stroke:none"
             id="path134" /></g><g
           id="g136"
           transform="translate(581.4976,320.2539)"><path
             d="M 0,0 C 42.656,10.25 71.332,43.121 64.049,73.418 L -90.418,36.294 C -83.135,5.996 -42.655,-10.253 0,0"
             style="fill:#7e461d;fill-opacity:1;fill-rule:nonzero;stroke:none"
             id="path138" /></g><g
           id="g140"
           transform="translate(489.5762,362.8027)"><path
             d="M 0,0 V 0 L 154.467,37.125 C 147.187,67.422 106.704,83.672 64.049,73.42 21.396,63.168 -7.282,30.298 0,0"
             style="fill:#7e461d;fill-opacity:1;fill-rule:nonzero;stroke:none"
             id="path142" /></g><g
           id="g144"
           transform="translate(773.5166,248.2466)"><path
             d="M 0,0 C 42.656,10.25 71.332,43.121 64.049,73.418 L -90.418,36.294 C -83.135,5.996 -42.655,-10.253 0,0"
             style="fill:#7e461d;fill-opacity:1;fill-rule:nonzero;stroke:none"
             id="path146" /></g><g
           id="g148"
           transform="translate(681.5952,290.7954)"><path
             d="M 0,0 V 0 L 154.467,37.125 C 147.187,67.422 106.704,83.672 64.049,73.42 21.396,63.168 -7.282,30.298 0,0"
             style="fill:#7e461d;fill-opacity:1;fill-rule:nonzero;stroke:none"
             id="path150" /></g><g
           id="g152"
           transform="translate(437.4824,443.2661)"><path
             d="M 0,0 C 42.656,10.25 71.332,43.121 64.049,73.418 L -90.418,36.294 C -83.135,5.996 -42.655,-10.253 0,0"
             style="fill:#7e461d;fill-opacity:1;fill-rule:nonzero;stroke:none"
             id="path154" /></g><g
           id="g156"
           transform="translate(345.561,485.8149)"><path
             d="M 0,0 V 0 L 154.467,37.125 C 147.187,67.422 106.704,83.672 64.049,73.42 21.396,63.168 -7.282,30.298 0,0"
             style="fill:#7e461d;fill-opacity:1;fill-rule:nonzero;stroke:none"
             id="path158" /></g><g
           id="g160"
           transform="translate(689.6909,643.7051)"><path
             d="M 0,0 C 31.917,-23.13 71.109,-23.501 87.537,-0.829 L -28.047,82.926 C -44.476,60.254 -31.918,23.129 0,0"
             style="fill:#d89d29;fill-opacity:1;fill-rule:nonzero;stroke:none"
             id="path162" /></g><g
           id="g164"
           transform="translate(665.0347,731.3125)"><path
             d="m 0,0 v 0 l 115.584,-83.755 c 16.428,22.668 3.871,59.797 -28.047,82.926 C 55.62,22.298 16.428,22.672 0,0"
             style="fill:#82550f;fill-opacity:1;fill-rule:nonzero;stroke:none"
             id="path166" /></g><g
           id="g168"
           transform="translate(917.7134,214.6611)"><path
             d="M 0,0 C 31.917,-23.13 71.109,-23.501 87.537,-0.829 L -28.047,82.926 C -44.476,60.254 -31.918,23.129 0,0"
             style="fill:#d89d29;fill-opacity:1;fill-rule:nonzero;stroke:none"
             id="path170" /></g><g
           id="g172"
           transform="translate(893.0571,302.2686)"><path
             d="m 0,0 v 0 l 115.584,-83.755 c 16.428,22.668 3.871,59.797 -28.047,82.926 C 55.62,22.298 16.428,22.672 0,0"
             style="fill:#82550f;fill-opacity:1;fill-rule:nonzero;stroke:none"
             id="path174" /></g><g
           id="g176"
           transform="translate(731.9766,432.9697)"><path
             d="M 0,0 C 39.063,-5.267 73.762,12.959 77.501,40.706 L -63.959,59.771 C -67.699,32.022 -39.064,5.265 0,0"
             style="fill:#d89d29;fill-opacity:1;fill-rule:nonzero;stroke:none"
             id="path178" /></g><g
           id="g180"
           transform="translate(668.7881,498.4688)"><path
             d="M 0,0 V 0 L 141.46,-19.063 C 145.201,8.68 116.565,35.441 77.5,40.706 38.438,45.97 3.738,27.747 0,0"
             style="fill:#82550f;fill-opacity:1;fill-rule:nonzero;stroke:none"
             id="path182" /></g></g></g></g></svg>
